<svg xmlns="http://www.w3.org/2000/svg" xmlns:xlink="http://www.w3.org/1999/xlink" width="2000" zoomAndPan="magnify" viewBox="0 0 1500 899.99999" height="1200" preserveAspectRatio="xMidYMid meet" version="1.0"><defs><clipPath id="88d23d80a3"><path d="M 657.390625 395 L 867.390625 395 L 867.390625 488 L 657.390625 488 Z M 657.390625 395 " clip-rule="nonzero"/></clipPath><clipPath id="b018e5ae72"><path d="M 796 461 L 844 461 L 844 508.707031 L 796 508.707031 Z M 796 461 " clip-rule="nonzero"/></clipPath><clipPath id="f6ffd10a92"><path d="M 678 461 L 726 461 L 726 508.707031 L 678 508.707031 Z M 678 461 " clip-rule="nonzero"/></clipPath></defs><g clip-path="url(#88d23d80a3)"><path fill="#007267" d="M 850.460938 432.234375 C 850.460938 432.234375 844.414062 419.894531 832.597656 409.96875 C 826.871094 405.148438 818.335938 400.820312 808.402344 398.488281 C 780.457031 391.941406 745.167969 395.800781 729.726562 401.246094 C 723.152344 403.5625 694.484375 432.316406 694.484375 432.316406 C 671.347656 436.015625 657.390625 441.578125 657.390625 454.910156 L 657.390625 477.460938 C 657.390625 483.25 662.074219 487.925781 667.847656 487.925781 L 671.570312 487.925781 C 671.46875 486.976562 671.429688 486.003906 671.429688 485.027344 C 671.429688 468.066406 685.179688 454.332031 702.144531 454.332031 C 719.105469 454.332031 732.863281 468.066406 732.863281 485.027344 C 732.863281 486.003906 732.804688 486.976562 732.710938 487.925781 L 789.28125 487.925781 C 789.203125 486.976562 789.144531 486.003906 789.144531 485.027344 C 789.144531 468.066406 802.898438 454.332031 819.859375 454.332031 C 836.816406 454.332031 850.574219 468.066406 850.574219 485.027344 C 850.574219 486.003906 850.515625 486.976562 850.433594 487.925781 L 855.246094 487.925781 C 861.929688 487.925781 867.328125 482.519531 867.328125 475.835938 L 867.328125 448.230469 C 867.320312 441.550781 860.28125 434.753906 850.460938 432.234375 Z M 710.714844 433.785156 L 733.367188 412.601562 C 737.140625 409.328125 750.738281 406.308594 772.289062 406.308594 L 772.308594 433.785156 Z M 784.242188 433.785156 L 784.242188 406.558594 C 802.316406 406.597656 828.300781 414.367188 836.09375 433.785156 Z M 784.242188 433.785156 " fill-opacity="1" fill-rule="nonzero"/></g><g clip-path="url(#b018e5ae72)"><path fill="#007267" d="M 819.859375 461.847656 C 807.039062 461.847656 796.6875 472.226562 796.6875 485.027344 C 796.6875 497.824219 807.039062 508.21875 819.859375 508.21875 C 832.65625 508.21875 843.027344 497.824219 843.027344 485.027344 C 843.027344 472.226562 832.65625 461.847656 819.859375 461.847656 Z M 819.859375 497.78125 C 812.820312 497.78125 807.117188 492.078125 807.117188 485.035156 C 807.117188 477.980469 812.820312 472.28125 819.859375 472.28125 C 826.898438 472.28125 832.597656 477.980469 832.597656 485.035156 C 832.597656 492.078125 826.898438 497.78125 819.859375 497.78125 Z M 819.859375 497.78125 " fill-opacity="1" fill-rule="nonzero"/></g><g clip-path="url(#f6ffd10a92)"><path fill="#007267" d="M 702.144531 461.847656 C 689.347656 461.847656 678.96875 472.226562 678.96875 485.027344 C 678.96875 497.824219 689.347656 508.21875 702.144531 508.21875 C 714.945312 508.21875 725.316406 497.824219 725.316406 485.027344 C 725.316406 472.226562 714.945312 461.847656 702.144531 461.847656 Z M 702.144531 497.78125 C 695.101562 497.78125 689.398438 492.078125 689.398438 485.035156 C 689.398438 477.980469 695.101562 472.28125 702.144531 472.28125 C 709.179688 472.28125 714.898438 477.980469 714.898438 485.035156 C 714.90625 492.078125 709.1875 497.78125 702.144531 497.78125 Z M 702.144531 497.78125 " fill-opacity="1" fill-rule="nonzero"/></g></svg>