<svg xmlns="http://www.w3.org/2000/svg" xmlns:xlink="http://www.w3.org/1999/xlink" width="2000" zoomAndPan="magnify" viewBox="0 0 1500 899.99999" height="1200" preserveAspectRatio="xMidYMid meet" version="1.0"><defs><clipPath id="68be268777"><path d="M 635.050781 358.472656 L 778 358.472656 L 778 541.472656 L 635.050781 541.472656 Z M 635.050781 358.472656 " clip-rule="nonzero"/></clipPath></defs><g clip-path="url(#68be268777)"><path fill="#007267" d="M 640.207031 365.347656 C 640.207031 361.546875 643.273438 358.476562 647.078125 358.476562 L 756.214844 358.476562 C 760.015625 358.476562 763.085938 361.546875 763.085938 365.347656 L 763.085938 392.90625 C 763.085938 396.710938 760.015625 399.78125 756.214844 399.78125 L 647.078125 399.78125 C 643.273438 399.78125 640.207031 396.710938 640.207031 392.90625 Z M 638.714844 373.640625 L 638.714844 384.796875 L 636.355469 384.796875 C 635.625 384.796875 635.050781 384.203125 635.050781 383.46875 L 635.050781 374.945312 C 635.050781 374.238281 635.625 373.640625 636.355469 373.640625 Z M 766.453125 373.640625 C 767.1875 373.640625 767.761719 374.238281 767.761719 374.945312 L 767.761719 377.101562 C 769.5 377.125 771.449219 377.328125 773.304688 378.453125 C 776.097656 380.125 777.769531 383.722656 777.839844 389.65625 L 777.839844 403.972656 C 777.886719 406.402344 777.726562 409.011719 776.535156 411.53125 C 775.34375 414.007812 773.097656 416.183594 769.59375 417.71875 L 712.414062 446.902344 C 711.085938 447.933594 709.960938 448.894531 709.296875 449.902344 C 708.585938 450.910156 708.222656 451.941406 708.335938 453.660156 L 708.335938 463.742188 L 723.363281 463.742188 C 722.539062 467.175781 719.054688 470.175781 714.039062 471.78125 L 714.980469 534.230469 L 715.621094 534.230469 C 716.996094 534.230469 718.09375 535.328125 718.09375 536.703125 L 718.09375 539.0625 C 718.09375 540.414062 716.996094 541.515625 715.621094 541.515625 L 696.078125 541.515625 C 694.726562 541.515625 693.628906 540.414062 693.628906 539.0625 L 693.628906 536.703125 C 693.628906 535.328125 694.726562 534.230469 696.078125 534.230469 L 696.378906 534.230469 L 697.292969 471.574219 C 692.597656 469.925781 689.390625 467.039062 688.589844 463.742188 L 703.914062 463.742188 L 703.914062 453.820312 C 703.800781 451.277344 704.507812 449.101562 705.65625 447.40625 C 706.800781 445.710938 708.3125 444.472656 709.800781 443.328125 L 709.960938 443.191406 L 767.691406 413.730469 L 767.761719 413.707031 C 770.578125 412.492188 771.835938 411.140625 772.570312 409.609375 C 773.28125 408.09375 773.464844 406.238281 773.417969 404.0625 L 773.417969 389.699219 C 773.371094 384.5 772.203125 382.917969 771.035156 382.230469 C 770.257812 381.773438 769.132812 381.613281 767.761719 381.566406 L 767.761719 383.46875 C 767.761719 384.203125 767.1875 384.796875 766.453125 384.796875 L 764.09375 384.796875 L 764.09375 373.640625 Z M 766.453125 373.640625 " fill-opacity="1" fill-rule="nonzero"/></g><path fill="#007267" d="M 857.148438 392.378906 L 860.699219 418.335938 L 860.769531 418.863281 L 864.890625 448.941406 C 864.9375 449.285156 864.707031 449.582031 864.363281 449.628906 L 849.726562 451.621094 C 843.242188 471.003906 854.859375 491.4375 858.019531 509.71875 C 859.667969 521.789062 859.875 533.679688 852.109375 538.125 C 843.082031 535.765625 840.65625 527.015625 838.800781 512.351562 C 836.988281 494.78125 842.601562 471.300781 831.195312 454.164062 L 817.011719 456.113281 C 816.667969 456.136719 816.371094 455.929688 816.324219 455.585938 L 812.292969 426.078125 L 812.316406 426.078125 L 808.628906 399.023438 L 813.300781 398.382812 L 817.242188 417.945312 L 814.953125 398.152344 L 822.167969 397.167969 L 825.167969 412.835938 L 823.632812 396.960938 L 826.566406 396.574219 L 829.933594 416.59375 L 828.078125 396.367188 L 839.96875 394.738281 L 843.929688 416.617188 L 841.480469 394.535156 L 848.121094 393.617188 L 851.628906 410.800781 L 850.230469 393.546875 L 850.527344 393.296875 Z M 859.804688 419.574219 L 813.484375 425.917969 L 814.011719 429.859375 L 860.332031 423.511719 Z M 860.515625 425.734375 L 814.332031 432.035156 L 816.441406 447.382812 L 862.601562 441.082031 Z M 862.921875 443.28125 L 816.738281 449.582031 L 817.472656 454.828125 L 863.632812 448.507812 Z M 850.277344 514.574219 L 847.734375 514.917969 C 846.519531 515.078125 845.671875 516.179688 845.832031 517.390625 L 846.976562 525.753906 C 847.160156 526.96875 848.261719 527.816406 849.472656 527.65625 L 852.015625 527.3125 C 853.230469 527.128906 854.054688 526.027344 853.894531 524.816406 L 852.75 516.453125 C 852.589844 515.238281 851.492188 514.390625 850.277344 514.574219 Z M 850.277344 514.574219 " fill-opacity="1" fill-rule="evenodd"/></svg>