<svg xmlns="http://www.w3.org/2000/svg" xmlns:xlink="http://www.w3.org/1999/xlink" width="2000" zoomAndPan="magnify" viewBox="0 0 1500 899.99999" height="1200" preserveAspectRatio="xMidYMid meet" version="1.0"><defs><clipPath id="44bf46ab14"><path d="M 586.140625 300.761719 L 887.640625 300.761719 L 887.640625 599.261719 L 586.140625 599.261719 Z M 586.140625 300.761719 " clip-rule="nonzero"/></clipPath></defs><g clip-path="url(#44bf46ab14)"><path fill="#007267" d="M 760.5 599.238281 C 753.828125 599.238281 747.46875 596.945312 742.152344 592.667969 C 735.480469 587.144531 731.621094 579.117188 731.621094 570.464844 L 731.621094 488.519531 C 731.621094 485.601562 733.914062 483.308594 736.835938 483.308594 C 739.753906 483.308594 742.046875 485.601562 742.046875 488.519531 L 742.046875 570.464844 C 742.046875 575.988281 744.445312 581.097656 748.71875 584.640625 C 752.992188 588.1875 758.621094 589.542969 764.042969 588.5 C 831.914062 575.15625 879.347656 515.105469 876.742188 445.671875 C 874.03125 373.007812 814.917969 314 742.359375 311.289062 C 703.996094 309.832031 667.503906 323.695312 639.878906 350.28125 C 612.148438 376.96875 596.925781 412.730469 596.925781 451.199219 C 596.925781 515.625 640.503906 571.402344 702.953125 587.039062 C 705.765625 587.769531 707.433594 590.585938 706.703125 593.398438 C 705.976562 596.214844 703.160156 597.882812 700.34375 597.152344 C 633.3125 580.367188 586.5 520.316406 586.5 451.199219 C 586.5 409.914062 602.867188 371.445312 632.582031 342.878906 C 662.292969 314.3125 701.386719 299.40625 742.777344 300.96875 C 820.757812 303.890625 884.246094 367.378906 887.167969 445.359375 C 889.980469 519.902344 839.105469 584.433594 766.128906 598.820312 C 764.253906 599.132812 762.375 599.238281 760.5 599.238281 Z M 705.246094 349.65625 C 699.824219 349.65625 695.550781 354.035156 695.550781 359.351562 L 695.550781 432.328125 C 695.550781 437.75 699.929688 442.023438 705.246094 442.023438 C 710.667969 442.023438 714.941406 437.644531 714.941406 432.328125 L 714.941406 359.351562 C 715.046875 354.035156 710.667969 349.65625 705.246094 349.65625 Z M 778.222656 359.457031 L 778.222656 432.433594 C 778.222656 437.855469 773.84375 442.128906 768.527344 442.128906 C 763.210938 442.128906 758.832031 437.75 758.832031 432.433594 L 758.832031 359.457031 C 758.832031 354.035156 763.210938 349.761719 768.527344 349.761719 C 773.84375 349.761719 778.222656 354.035156 778.222656 359.457031 Z M 778.222656 359.457031 " fill-opacity="1" fill-rule="nonzero"/></g><path fill="#26a69a" d="M 802.304688 395.109375 L 671.46875 395.109375 C 665.210938 395.109375 661.773438 402.40625 665.835938 407.203125 L 681.058594 432.328125 C 683.875 436.914062 685.332031 442.234375 685.332031 447.550781 L 685.332031 462.355469 C 685.332031 489.25 707.121094 510.933594 733.914062 510.933594 L 739.960938 510.933594 C 766.859375 510.933594 788.542969 489.148438 788.542969 462.355469 L 788.542969 447.550781 C 788.542969 442.128906 790.003906 436.914062 792.816406 432.328125 L 808.039062 407.203125 C 812 402.40625 808.558594 395.109375 802.304688 395.109375 Z M 802.304688 395.109375 " fill-opacity="1" fill-rule="nonzero"/></svg>