<svg xmlns="http://www.w3.org/2000/svg" xmlns:xlink="http://www.w3.org/1999/xlink" width="2000" zoomAndPan="magnify" viewBox="0 0 1500 899.99999" height="1200" preserveAspectRatio="xMidYMid meet" version="1.0"><defs><clipPath id="4aedd75792"><path d="M 676.394531 336.371094 L 823 336.371094 L 823 532.871094 L 676.394531 532.871094 Z M 676.394531 336.371094 " clip-rule="nonzero"/></clipPath></defs><g clip-path="url(#4aedd75792)"><path fill="#007267" d="M 733.644531 336.371094 C 720.558594 396.890625 676.394531 425.511719 676.394531 470.492188 C 676.394531 527.742188 727.917969 532.648438 727.917969 532.648438 C 719.738281 526.921875 709.925781 509.75 709.925781 497.480469 C 709.925781 474.582031 721.375 467.222656 727.917969 441.871094 C 742.640625 454.957031 742.640625 472.128906 742.640625 472.128906 C 742.640625 472.128906 763.085938 441.871094 757.359375 404.25 C 817.878906 457.410156 793.34375 516.292969 768.808594 532.648438 C 768.808594 532.648438 822.785156 528.558594 822.785156 470.492188 C 823.601562 378.078125 733.644531 336.371094 733.644531 336.371094 Z M 733.644531 336.371094 " fill-opacity="1" fill-rule="nonzero"/></g></svg>