<svg xmlns="http://www.w3.org/2000/svg" xmlns:xlink="http://www.w3.org/1999/xlink" width="2000" zoomAndPan="magnify" viewBox="0 0 1500 824.999997" height="1100" preserveAspectRatio="xMidYMid meet" version="1.0"><path fill="#749bc2" d="M 888.253906 519.476562 C 888.253906 519.476562 882.265625 533.039062 882.792969 541.835938 C 882.910156 543.882812 883.40625 545.667969 884.046875 547.214844 C 886.296875 552.359375 894.15625 551.890625 895.761719 546.515625 C 896.230469 544.90625 896.492188 543.066406 896.375 541.019531 C 895.851562 532.25 888.253906 519.476562 888.253906 519.476562 Z M 888.253906 519.476562 " fill-opacity="1" fill-rule="nonzero"/><path fill="#749bc2" d="M 880.953125 569.753906 C 880.953125 570.125 880.917969 570.492188 880.84375 570.859375 C 880.773438 571.222656 880.664062 571.578125 880.519531 571.921875 C 880.378906 572.265625 880.203125 572.589844 879.992188 572.898438 C 879.785156 573.210938 879.550781 573.496094 879.285156 573.757812 C 879.019531 574.019531 878.734375 574.257812 878.421875 574.464844 C 878.109375 574.667969 877.78125 574.84375 877.4375 574.988281 C 877.089844 575.128906 876.734375 575.234375 876.367188 575.308594 C 876 575.382812 875.628906 575.417969 875.253906 575.417969 C 874.882812 575.417969 874.511719 575.382812 874.144531 575.308594 C 873.777344 575.234375 873.421875 575.128906 873.074219 574.988281 C 872.726562 574.84375 872.398438 574.667969 872.089844 574.464844 C 871.777344 574.257812 871.488281 574.019531 871.226562 573.757812 C 870.960938 573.496094 870.722656 573.210938 870.515625 572.898438 C 870.308594 572.589844 870.132812 572.265625 869.988281 571.921875 C 869.847656 571.578125 869.738281 571.222656 869.664062 570.859375 C 869.59375 570.492188 869.554688 570.125 869.554688 569.753906 C 869.554688 569.378906 869.59375 569.011719 869.664062 568.648438 C 869.738281 568.28125 869.847656 567.929688 869.988281 567.585938 C 870.132812 567.242188 870.308594 566.914062 870.515625 566.605469 C 870.722656 566.296875 870.960938 566.011719 871.226562 565.746094 C 871.488281 565.484375 871.777344 565.25 872.089844 565.042969 C 872.398438 564.835938 872.726562 564.660156 873.074219 564.519531 C 873.421875 564.375 873.777344 564.269531 874.144531 564.195312 C 874.511719 564.125 874.882812 564.085938 875.253906 564.085938 C 875.628906 564.085938 876 564.125 876.367188 564.195312 C 876.734375 564.269531 877.089844 564.375 877.4375 564.519531 C 877.78125 564.660156 878.109375 564.835938 878.421875 565.042969 C 878.734375 565.25 879.019531 565.484375 879.285156 565.746094 C 879.550781 566.011719 879.785156 566.296875 879.992188 566.605469 C 880.203125 566.914062 880.378906 567.242188 880.519531 567.585938 C 880.664062 567.929688 880.773438 568.28125 880.84375 568.648438 C 880.917969 569.011719 880.953125 569.378906 880.953125 569.753906 Z M 880.953125 569.753906 " fill-opacity="1" fill-rule="nonzero"/><path fill="#749bc2" d="M 871.371094 508.894531 C 870.640625 497.316406 860.589844 480.480469 860.589844 480.480469 C 860.589844 480.480469 852.703125 498.429688 853.433594 510.003906 C 853.609375 512.722656 854.25 515.0625 855.128906 517.105469 C 858.109375 523.917969 868.507812 523.273438 870.582031 516.140625 C 871.195312 514.035156 871.546875 511.613281 871.371094 508.894531 Z M 871.371094 508.894531 " fill-opacity="1" fill-rule="nonzero"/><path fill="#749bc2" d="M 887.085938 491.53125 C 891.292969 494.570312 897.308594 490.535156 895.996094 485.539062 C 895.617188 484.046875 894.945312 482.46875 893.890625 480.917969 C 889.304688 474.222656 877.242188 467.648438 877.242188 467.648438 C 877.242188 467.648438 878.9375 481.152344 883.523438 487.847656 C 884.601562 489.421875 885.828125 490.625 887.085938 491.53125 Z M 887.085938 491.53125 " fill-opacity="1" fill-rule="nonzero"/><path fill="#749bc2" d="M 792.554688 455.980469 C 804.152344 464.050781 811.894531 473.109375 816.773438 479.921875 C 822.527344 479.074219 831.347656 477.117188 840.960938 471.941406 C 850.71875 466.710938 857.289062 460.335938 861.144531 455.980469 L 748.183594 400.089844 L 822.351562 326.691406 C 829.277344 319.820312 829.277344 308.683594 822.351562 301.816406 L 756.742188 236.863281 C 749.789062 229.992188 738.511719 229.992188 731.589844 236.863281 L 609.484375 357.707031 C 602.558594 364.574219 602.558594 375.710938 609.484375 382.582031 L 679.328125 451.714844 C 684.382812 456.710938 691.980469 458.230469 698.609375 455.542969 C 704.917969 453.027344 711.230469 450.484375 717.511719 447.941406 C 742.078125 438.03125 770.179688 440.605469 791.972656 455.570312 C 792.175781 455.691406 792.351562 455.839844 792.554688 455.980469 Z M 721.277344 263.023438 L 730.890625 253.523438 C 736 248.46875 744.269531 248.46875 749.351562 253.523438 L 797.433594 301.113281 C 800.003906 303.628906 801.261719 306.960938 801.261719 310.261719 C 801.261719 313.566406 800.003906 316.898438 797.433594 319.414062 C 796.296875 320.523438 794.980469 321.398438 793.578125 322.042969 Z M 721.277344 263.023438 " fill-opacity="1" fill-rule="nonzero"/><path fill="#749bc2" d="M 843.5 552.765625 C 843.238281 554.8125 843.386719 556.652344 843.734375 558.292969 C 844.960938 563.785156 852.792969 564.78125 855.363281 559.78125 C 856.152344 558.292969 856.734375 556.539062 856.996094 554.492188 C 858.136719 545.75 853.082031 531.835938 853.082031 531.835938 C 853.082031 531.835938 844.640625 544.054688 843.5 552.765625 Z M 843.5 552.765625 " fill-opacity="1" fill-rule="nonzero"/><path fill="#749bc2" d="M 836.929688 579.71875 C 833.597656 583.054688 833.597656 588.402344 836.929688 591.707031 C 840.289062 595.007812 845.691406 595.007812 849.023438 591.707031 C 852.382812 588.402344 852.382812 583.054688 849.023438 579.71875 C 845.691406 576.417969 840.285156 576.417969 836.929688 579.71875 Z M 836.929688 579.71875 " fill-opacity="1" fill-rule="nonzero"/><path fill="#749bc2" d="M 814.027344 565.074219 C 813.792969 566.945312 813.910156 568.640625 814.230469 570.128906 C 815.371094 575.1875 822.554688 576.09375 824.921875 571.503906 C 825.652344 570.128906 826.207031 568.492188 826.441406 566.621094 C 827.464844 558.613281 822.820312 545.808594 822.820312 545.808594 C 822.820312 545.808594 815.050781 557.035156 814.027344 565.074219 Z M 814.027344 565.074219 " fill-opacity="1" fill-rule="nonzero"/><path fill="#749bc2" d="M 822.671875 523.449219 C 826.910156 512.632812 824.894531 493.195312 824.894531 493.195312 C 824.894531 493.195312 810.140625 506.203125 805.90625 517.019531 C 804.914062 519.5625 804.503906 521.960938 804.445312 524.179688 C 804.242188 531.578125 813.96875 535.316406 818.875 529.707031 C 820.335938 528.039062 821.675781 525.992188 822.671875 523.449219 Z M 822.671875 523.449219 " fill-opacity="1" fill-rule="nonzero"/><path fill="#749bc2" d="M 788.523438 551.777344 C 786.304688 553.996094 786.304688 557.5625 788.523438 559.785156 C 790.746094 561.976562 794.367188 561.976562 796.585938 559.785156 C 798.835938 557.5625 798.835938 553.996094 796.585938 551.777344 C 794.367188 549.582031 790.746094 549.582031 788.523438 551.777344 Z M 788.523438 551.777344 " fill-opacity="1" fill-rule="nonzero"/><path fill="#91c8e4" d="M 896.375 541.019531 C 896.492188 543.066406 896.230469 544.90625 895.761719 546.515625 C 894.15625 551.890625 886.296875 552.359375 884.046875 547.214844 C 883.40625 545.667969 882.910156 543.882812 882.792969 541.835938 C 882.265625 533.039062 888.253906 519.476562 888.253906 519.476562 C 888.253906 519.476562 895.851562 532.25 896.375 541.019531 Z M 896.375 541.019531 " fill-opacity="1" fill-rule="nonzero"/><path fill="#749bc2" d="M 880.953125 569.753906 C 880.953125 570.125 880.917969 570.492188 880.84375 570.859375 C 880.773438 571.222656 880.664062 571.578125 880.519531 571.921875 C 880.378906 572.265625 880.203125 572.589844 879.992188 572.898438 C 879.785156 573.210938 879.550781 573.496094 879.285156 573.757812 C 879.019531 574.019531 878.734375 574.257812 878.421875 574.464844 C 878.109375 574.667969 877.78125 574.84375 877.4375 574.988281 C 877.089844 575.128906 876.734375 575.234375 876.367188 575.308594 C 876 575.382812 875.628906 575.417969 875.253906 575.417969 C 874.882812 575.417969 874.511719 575.382812 874.144531 575.308594 C 873.777344 575.234375 873.421875 575.128906 873.074219 574.988281 C 872.726562 574.84375 872.398438 574.667969 872.089844 574.464844 C 871.777344 574.257812 871.488281 574.019531 871.226562 573.757812 C 870.960938 573.496094 870.722656 573.210938 870.515625 572.898438 C 870.308594 572.589844 870.132812 572.265625 869.988281 571.921875 C 869.847656 571.578125 869.738281 571.222656 869.664062 570.859375 C 869.59375 570.492188 869.554688 570.125 869.554688 569.753906 C 869.554688 569.378906 869.59375 569.011719 869.664062 568.648438 C 869.738281 568.28125 869.847656 567.929688 869.988281 567.585938 C 870.132812 567.242188 870.308594 566.914062 870.515625 566.605469 C 870.722656 566.296875 870.960938 566.011719 871.226562 565.746094 C 871.488281 565.484375 871.777344 565.25 872.089844 565.042969 C 872.398438 564.835938 872.726562 564.660156 873.074219 564.519531 C 873.421875 564.375 873.777344 564.269531 874.144531 564.195312 C 874.511719 564.125 874.882812 564.085938 875.253906 564.085938 C 875.628906 564.085938 876 564.125 876.367188 564.195312 C 876.734375 564.269531 877.089844 564.375 877.4375 564.519531 C 877.78125 564.660156 878.109375 564.835938 878.421875 565.042969 C 878.734375 565.25 879.019531 565.484375 879.285156 565.746094 C 879.550781 566.011719 879.785156 566.296875 879.992188 566.605469 C 880.203125 566.914062 880.378906 567.242188 880.519531 567.585938 C 880.664062 567.929688 880.773438 568.28125 880.84375 568.648438 C 880.917969 569.011719 880.953125 569.378906 880.953125 569.753906 Z M 880.953125 569.753906 " fill-opacity="1" fill-rule="nonzero"/><path fill="#749bc2" d="M 871.371094 508.894531 C 871.546875 511.613281 871.195312 514.039062 870.582031 516.140625 C 868.507812 523.273438 858.109375 523.917969 855.128906 517.105469 C 854.25 515.0625 853.609375 512.722656 853.433594 510.003906 C 852.703125 498.429688 860.589844 480.480469 860.589844 480.480469 C 860.589844 480.480469 870.640625 497.316406 871.371094 508.894531 Z M 871.371094 508.894531 " fill-opacity="1" fill-rule="nonzero"/><path fill="#91c8e4" d="M 895.996094 485.539062 C 897.308594 490.535156 891.292969 494.570312 887.085938 491.53125 C 885.828125 490.625 884.601562 489.425781 883.523438 487.847656 C 878.9375 481.152344 877.242188 467.648438 877.242188 467.648438 C 877.242188 467.648438 889.304688 474.222656 893.890625 480.917969 C 894.945312 482.46875 895.617188 484.046875 895.996094 485.539062 Z M 895.996094 485.539062 " fill-opacity="1" fill-rule="nonzero"/><path fill="#91c8e4" d="M 853.082031 531.839844 C 853.082031 531.839844 858.136719 545.753906 856.996094 554.492188 C 856.734375 556.539062 856.152344 558.292969 855.363281 559.785156 C 852.792969 564.785156 844.960938 563.789062 843.734375 558.292969 C 843.386719 556.65625 843.238281 554.816406 843.5 552.769531 C 844.640625 544.058594 853.082031 531.839844 853.082031 531.839844 Z M 853.082031 531.839844 " fill-opacity="1" fill-rule="nonzero"/><path fill="#91c8e4" d="M 849.023438 579.71875 C 852.382812 583.054688 852.382812 588.402344 849.023438 591.707031 C 845.691406 595.007812 840.289062 595.007812 836.929688 591.707031 C 833.597656 588.402344 833.597656 583.054688 836.929688 579.71875 C 840.289062 576.417969 845.691406 576.417969 849.023438 579.71875 Z M 849.023438 579.71875 " fill-opacity="1" fill-rule="nonzero"/><path fill="#749bc2" d="M 822.820312 545.8125 C 822.820312 545.8125 827.464844 558.617188 826.441406 566.625 C 826.207031 568.496094 825.652344 570.132812 824.921875 571.507812 C 822.554688 576.097656 815.371094 575.191406 814.230469 570.132812 C 813.910156 568.640625 813.792969 566.945312 814.027344 565.074219 C 815.050781 557.035156 822.820312 545.8125 822.820312 545.8125 Z M 822.820312 545.8125 " fill-opacity="1" fill-rule="nonzero"/><path fill="#91c8e4" d="M 824.894531 493.195312 C 824.894531 493.195312 826.910156 512.632812 822.671875 523.449219 C 821.679688 525.992188 820.335938 528.039062 818.875 529.707031 C 813.96875 535.316406 804.242188 531.578125 804.445312 524.179688 C 804.503906 521.960938 804.914062 519.5625 805.90625 517.019531 C 810.140625 506.203125 824.894531 493.195312 824.894531 493.195312 Z M 824.894531 493.195312 " fill-opacity="1" fill-rule="nonzero"/><path fill="#749bc2" d="M 796.585938 551.777344 C 798.835938 553.996094 798.835938 557.5625 796.585938 559.785156 C 794.367188 561.976562 790.746094 561.976562 788.523438 559.785156 C 786.304688 557.5625 786.304688 553.996094 788.523438 551.777344 C 790.746094 549.582031 794.367188 549.582031 796.585938 551.777344 Z M 796.585938 551.777344 " fill-opacity="1" fill-rule="nonzero"/><path fill="#4682a9" d="M 721.277344 263.027344 L 793.578125 322.046875 C 791.066406 323.1875 788.203125 323.507812 785.398438 322.894531 C 782.507812 322.25 779.265625 321.402344 775.757812 320.261719 C 766.847656 311.816406 756.976562 303.074219 746.167969 294.304688 C 736.324219 286.296875 726.710938 279.046875 717.480469 272.46875 C 717.394531 269.050781 718.679688 265.628906 721.277344 263.027344 Z M 721.277344 263.027344 " fill-opacity="1" fill-rule="nonzero"/><path fill="#91c8e4" d="M 775.757812 320.261719 C 766.441406 317.308594 755.308594 312.429688 744.152344 304.273438 C 733.078125 296.175781 725.28125 287.230469 719.90625 279.75 C 718.328125 277.527344 717.539062 274.984375 717.480469 272.46875 C 726.710938 279.046875 736.324219 286.296875 746.167969 294.304688 C 756.976562 303.074219 766.847656 311.816406 775.757812 320.261719 Z M 775.757812 320.261719 " fill-opacity="1" fill-rule="nonzero"/><path fill="#4682a9" d="M 840.960938 471.945312 C 831.347656 477.117188 822.527344 479.078125 816.773438 479.925781 C 811.894531 473.113281 804.152344 464.050781 792.554688 455.984375 C 792.351562 455.839844 792.175781 455.691406 791.972656 455.574219 C 770.179688 440.609375 742.078125 438.035156 717.511719 447.945312 C 711.230469 450.488281 704.917969 453.03125 698.609375 455.546875 C 691.980469 458.234375 684.382812 456.714844 679.328125 451.714844 L 609.484375 382.585938 C 602.558594 375.714844 602.558594 364.578125 609.484375 357.707031 L 681.402344 286.53125 C 644.128906 323.945312 668.082031 405.296875 741.871094 421.433594 C 815.722656 437.539062 840.960938 471.945312 840.960938 471.945312 Z M 840.960938 471.945312 " fill-opacity="1" fill-rule="nonzero"/></svg>