<svg xmlns="http://www.w3.org/2000/svg" xmlns:xlink="http://www.w3.org/1999/xlink" width="2000" zoomAndPan="magnify" viewBox="0 0 1500 824.999997" height="1100" preserveAspectRatio="xMidYMid meet" version="1.0"><defs><clipPath id="b48bd62903"><path d="M 568.382812 367 L 789 367 L 789 544 L 568.382812 544 Z M 568.382812 367 " clip-rule="nonzero"/></clipPath><clipPath id="f04b175139"><path d="M 810 278.558594 L 931 278.558594 L 931 546 L 810 546 Z M 810 278.558594 " clip-rule="nonzero"/></clipPath></defs><g clip-path="url(#b48bd62903)"><path fill="#4682a9" d="M 788.210938 531.785156 C 788.480469 531.15625 789.558594 528.007812 786.324219 527.019531 C 786.414062 527.109375 784.707031 525.671875 784.527344 523.785156 C 784.347656 521.898438 784.527344 520.277344 783 514.257812 C 781.46875 508.234375 777.964844 501.402344 777.425781 498.707031 C 776.886719 496.011719 777.15625 492.867188 776.4375 492.054688 C 775.71875 491.246094 772.035156 491.695312 768.621094 489.71875 C 765.203125 487.742188 758.375 482.4375 756.847656 478.214844 C 755.320312 473.988281 753.160156 465.902344 753.25 460.867188 C 753.339844 455.835938 750.734375 447.835938 746.0625 443.609375 C 745.523438 443.160156 744.894531 439.117188 744.894531 439.117188 C 744.894531 439.117188 750.734375 438.398438 751.992188 436.238281 C 753.25 434.082031 752.621094 431.746094 747.769531 430.9375 C 742.917969 430.128906 736.984375 431.207031 733.929688 430.757812 C 730.875 430.308594 725.390625 427.429688 713.886719 427.339844 C 702.386719 427.25 693.847656 426.441406 681.984375 423.835938 C 670.121094 421.230469 659.699219 417.992188 655.472656 415.207031 C 651.25 412.421875 649.992188 411.433594 646.304688 406.308594 C 642.621094 401.183594 639.59375 398.359375 634.53125 391.386719 C 629.472656 384.417969 615.480469 376.109375 615.480469 376.109375 C 615.480469 376.109375 614.402344 372.152344 609.726562 371.164062 C 609.816406 371.164062 604.984375 367.539062 603.367188 367.902344 C 601.75 368.261719 601.324219 370.449219 601.234375 376.292969 C 601.324219 376.292969 598.046875 377.097656 595.257812 378.804688 C 592.472656 380.511719 588.609375 383.117188 588.339844 385.1875 C 588.070312 387.253906 587.890625 388.332031 587.082031 388.960938 C 586.273438 389.589844 581.507812 392.015625 579.261719 392.644531 C 577.015625 393.273438 573.152344 395.339844 571.355469 395.792969 C 569.558594 396.242188 568.65625 397.050781 569.019531 398.667969 C 569.375 400.285156 570.097656 403.519531 572.613281 406.933594 C 572.613281 406.933594 573.242188 412.417969 577.644531 412.148438 C 577.644531 412.238281 577.914062 413.136719 580.339844 413.496094 C 582.765625 413.855469 585.644531 414.484375 589.507812 413.046875 C 589.507812 413.046875 595.4375 414.214844 598.40625 414.214844 C 598.945312 414.304688 601.011719 415.023438 601.28125 415.5625 C 601.550781 416.101562 603.078125 419.699219 604.964844 423.835938 C 606.851562 427.96875 607.839844 436.507812 609.457031 440.734375 C 611.078125 444.957031 612.15625 449.363281 612.875 454.214844 C 613.59375 459.070312 616.738281 468.597656 625.996094 474.796875 C 625.996094 474.796875 625.90625 479.652344 625.1875 480.730469 C 624.46875 481.808594 617.90625 488.371094 615.300781 495.109375 C 613.773438 499.15625 609.820312 503.378906 608.109375 505.71875 C 606.402344 508.054688 605.054688 510.480469 604.964844 514.527344 C 604.875 518.570312 604.605469 522.4375 603.796875 525.132812 C 602.988281 527.828125 602.539062 529.175781 601.640625 529.894531 C 600.742188 530.613281 600.5625 536.007812 601.730469 537.175781 C 602.898438 538.34375 604.066406 538.703125 605.144531 538.253906 C 605.234375 538.253906 607.121094 538.972656 610.179688 537.625 C 610.898438 537.265625 611.257812 536.277344 611.257812 536.277344 C 611.257812 536.277344 613.773438 533.941406 614.582031 532.953125 C 615.390625 531.960938 617.277344 530.613281 617.007812 528.816406 C 616.738281 527.019531 615.570312 526.839844 615.570312 526.839844 C 615.570312 526.839844 614.761719 524.683594 614.222656 523.964844 C 614.222656 523.964844 615.121094 518.121094 615.03125 516.863281 C 615.03125 516.953125 616.199219 517.761719 617.367188 516.683594 C 618.535156 515.605469 616.289062 512.367188 616.648438 511.738281 C 617.007812 511.109375 620.332031 508.414062 623.929688 505.898438 C 627.523438 503.378906 629.230469 500.503906 632.375 497.539062 C 635.519531 494.570312 640.824219 490.976562 640.824219 490.976562 C 640.824219 490.976562 641.453125 492.503906 643.609375 495.203125 C 645.765625 497.898438 647.292969 501.941406 650.171875 505.808594 C 653.046875 509.671875 658.617188 523.15625 658.707031 528.277344 C 658.976562 531.242188 658.257812 532.324219 657.71875 532.683594 C 657.179688 533.042969 655.023438 534.121094 655.023438 534.121094 C 655.023438 534.121094 654.753906 533.402344 652.507812 535.109375 C 650.261719 536.816406 649.09375 538.976562 651.25 539.332031 C 651.25 539.421875 651.699219 542.570312 654.753906 542.660156 C 657.808594 542.75 664.101562 542.570312 665.808594 542.480469 C 667.515625 542.390625 670.570312 540.773438 670.390625 538.972656 C 670.210938 537.175781 671.109375 535.648438 670.570312 532.503906 C 670.03125 529.355469 668.59375 523.785156 668.324219 521.265625 C 668.324219 521.355469 671.917969 520.457031 671.019531 518.210938 C 670.121094 515.964844 665.988281 513.714844 665.359375 510.75 C 664.730469 507.785156 664.640625 502.480469 662.035156 495.382812 C 659.429688 488.28125 659.699219 484.597656 659.96875 483.335938 C 660.234375 482.078125 660.867188 479.652344 660.867188 479.652344 C 660.867188 479.652344 681.714844 477.765625 696.09375 468.597656 C 696.632812 468.328125 709.394531 469.136719 712.539062 468.238281 C 712.808594 468.238281 715.238281 470.484375 716.226562 473.898438 C 717.214844 477.316406 716.046875 479.5625 724.402344 488.371094 C 732.761719 497.179688 740.21875 499.246094 742.46875 500.953125 C 744.714844 502.660156 751.183594 504.28125 752.082031 507.695312 C 752.621094 509.582031 751.722656 513.269531 750.734375 515.964844 C 749.746094 518.660156 746.242188 526.210938 745.074219 527.289062 C 743.90625 528.367188 742.738281 530.703125 740.582031 531.605469 C 738.421875 532.503906 738.152344 531.605469 736.175781 533.761719 C 734.199219 535.917969 731.863281 538.433594 735.1875 539.695312 C 735.277344 539.78125 735.546875 542.390625 739.050781 542.480469 C 742.558594 542.570312 743.996094 542.660156 744.625 541.851562 C 744.714844 542.03125 745.613281 542.390625 747.320312 542.390625 C 749.027344 542.390625 751.542969 540.953125 751.273438 538.523438 C 751.273438 537.535156 752.261719 535.109375 752.621094 534.390625 C 752.980469 533.671875 759.542969 524.144531 760.171875 520.726562 C 760.800781 517.3125 766.011719 509.761719 766.191406 505.988281 C 766.191406 506.078125 767.992188 507.875 769.070312 510.121094 C 770.148438 512.371094 773.472656 518.570312 773.832031 522.078125 C 774.191406 525.582031 774.550781 528.546875 775.539062 530.347656 C 776.527344 532.144531 775.898438 536.726562 777.15625 538.792969 C 778.414062 540.863281 780.300781 542.839844 782.191406 543.648438 C 784.078125 544.457031 784.617188 543.46875 785.066406 541.941406 C 785.246094 541.492188 788.121094 541.132812 788.300781 537.804688 C 788.480469 534.480469 787.941406 532.414062 788.210938 531.785156 " fill-opacity="1" fill-rule="nonzero"/></g><g clip-path="url(#f04b175139)"><path fill="#4682a9" d="M 930.835938 535.835938 C 930.5625 535.316406 928.285156 531.21875 928.96875 528.222656 C 929.296875 526.765625 929.722656 525.910156 929.382812 525.359375 C 929.160156 525 928.832031 524.949219 928.167969 525.222656 C 928.195312 523.480469 927.265625 522.214844 924.757812 519.765625 C 924.351562 519.371094 923.933594 518.808594 923.5 518.125 L 923.902344 517.898438 C 924.160156 517.75 924.269531 517.460938 924.144531 517.25 L 923.574219 516.28125 C 923.445312 516.066406 923.132812 516.011719 922.875 516.160156 L 922.507812 516.367188 C 920.324219 512.136719 918.085938 505.585938 916.859375 501.710938 C 915.199219 496.464844 913.011719 488.433594 912.679688 486.308594 C 912.347656 484.183594 911.417969 476.882812 904.578125 468.851562 C 902.257812 466.195312 901.394531 464.867188 900.464844 462.875 C 899.535156 460.882812 898.273438 458.828125 897.808594 456.902344 C 897.492188 455.59375 896.566406 451.285156 895.667969 446.738281 C 896.222656 446.546875 896.523438 446.191406 896.265625 445.417969 C 896.003906 444.628906 894.734375 439.246094 893.636719 434.445312 C 893.359375 432.214844 893.097656 429.960938 892.78125 427.808594 L 892.136719 411.980469 C 893.257812 409.480469 894.742188 404.878906 892.820312 396.894531 C 891.121094 389.847656 887.929688 386.027344 886.402344 383.925781 C 886.75 383.652344 886.953125 383.191406 886.886719 382.699219 L 886.40625 378.984375 C 886.34375 378.523438 886.066406 378.148438 885.699219 377.953125 C 885.808594 375.839844 886.023438 373.34375 886.46875 371.214844 C 887.464844 366.433594 888.449219 359.980469 888.449219 359.980469 C 888.449219 359.980469 891.636719 365.691406 892.101562 367.75 C 892.566406 369.804688 893.03125 372.660156 896.613281 378.835938 C 900.199219 385.007812 905.175781 395.429688 906.109375 398.152344 C 906.445312 399.144531 906.742188 400.039062 907.070312 400.9375 C 907.035156 401.097656 906.988281 401.25 906.957031 401.414062 C 906.785156 402.292969 906.703125 403.152344 906.703125 403.960938 C 906.734375 406.5 907.425781 408.722656 909.332031 409.191406 C 909.472656 409.21875 909.609375 409.230469 909.75 409.230469 C 910.1875 409.226562 910.59375 409.105469 910.972656 408.90625 C 911.863281 410.585938 912.386719 411.707031 912.730469 412.523438 C 913.226562 413.71875 915.464844 417.105469 916.414062 419.046875 C 917.355469 420.988281 919.5 422.929688 919.898438 423.628906 C 920.292969 424.324219 921.289062 425.519531 921.640625 425.96875 C 921.984375 426.414062 922.933594 427.210938 922.386719 425.667969 C 922.386719 425.71875 923.183594 425.070312 922.238281 423.277344 C 921.289062 421.488281 920.246094 419.792969 919.746094 419.097656 C 919.25 418.398438 919 417.304688 919 417.304688 C 919 417.304688 919.898438 418.699219 920.792969 419.144531 C 921.6875 419.59375 923.929688 421.386719 925.125 422.082031 C 926.320312 422.78125 926.914062 423.078125 927.613281 423.429688 C 928.308594 423.777344 929.605469 423.828125 928.40625 422.980469 C 928.460938 423.03125 929.105469 422.234375 928.207031 421.585938 C 927.3125 420.9375 926.46875 420.09375 925.921875 419.792969 C 925.371094 419.496094 923.878906 417.703125 922.933594 417.15625 C 922.683594 417.105469 921.488281 415.414062 921.488281 415.414062 C 921.488281 415.414062 922.933594 416.457031 923.53125 416.804688 C 924.128906 417.15625 925.621094 418.648438 926.519531 419.296875 C 927.414062 419.941406 927.960938 420.292969 928.757812 420.589844 C 929.550781 420.886719 930.398438 420.839844 929.503906 420.140625 C 929.503906 420.191406 930.101562 419.394531 929.15625 418.597656 C 928.207031 417.800781 928.0625 417.503906 928.0625 417.503906 C 928.0625 417.503906 928.308594 417.304688 927.960938 416.90625 C 928.007812 416.855469 928.660156 416.457031 927.761719 415.261719 C 926.867188 414.066406 925.820312 412.277344 924.875 411.378906 C 923.929688 410.484375 923.332031 408.34375 921.984375 407.097656 C 920.644531 405.851562 918.101562 402.46875 916.414062 401.171875 C 915.585938 400.539062 915.101562 400.238281 914.65625 399.75 C 914.539062 397.5 913.847656 395.605469 912.171875 395.109375 C 911.394531 393.261719 911.046875 391.894531 910.4375 389.570312 C 909.640625 386.535156 905.910156 372.792969 903.070312 367.367188 C 902.175781 365.773438 901.628906 364.828125 901.027344 363.085938 C 900.429688 361.34375 898.289062 356.714844 896.847656 352.980469 C 895.40625 349.246094 895.375 348.898438 893.996094 345.535156 C 893.996094 345.535156 895.738281 333.878906 892.644531 329.515625 C 892.09375 328.882812 890.269531 324.519531 889.078125 322.460938 C 887.890625 320.398438 887.015625 316.90625 887.015625 313.574219 C 887.015625 313.425781 887.023438 313.28125 887.027344 313.132812 C 888.613281 311.550781 890.464844 308.976562 890.464844 308.976562 C 890.464844 308.976562 894.175781 313.972656 898.457031 308.832031 C 902.738281 303.695312 902.148438 292.710938 896.582031 294.28125 C 897.9375 282.734375 888.695312 278.546875 881.023438 278.546875 C 873.867188 278.546875 868.082031 284.449219 867.054688 284.425781 C 862.675781 284.324219 864.039062 288.996094 865.070312 291.480469 C 864.53125 292.425781 864.226562 293.347656 864.101562 294.148438 C 863.625 297.242188 864.421875 298.507812 864.101562 299.144531 C 863.78125 299.777344 861.484375 302.238281 860.613281 303.109375 C 859.738281 303.980469 860.296875 304.933594 860.769531 305.25 C 861.246094 305.566406 862.039062 305.964844 862.117188 306.363281 C 862.199219 306.757812 861.40625 307.3125 861.40625 307.945312 C 861.40625 308.578125 861.804688 309.054688 862.355469 308.980469 C 862.355469 308.980469 861.246094 309.53125 861.960938 310.644531 C 862.355469 311.195312 862.675781 311.433594 862.59375 311.992188 C 862.515625 312.546875 861.960938 314.132812 863.46875 314.925781 C 864.972656 315.71875 867.511719 315.320312 868.859375 316.035156 C 870.207031 316.75 872.667969 321.03125 872.667969 323.570312 C 872.667969 326.105469 870.921875 329.121094 870.921875 329.121094 C 870.921875 329.121094 870.289062 328.167969 869.097656 331.101562 C 867.910156 334.039062 865.003906 338.253906 862.675781 341.085938 C 859.292969 345.207031 852.675781 352.5625 859.777344 359.507812 C 859.777344 359.589844 860.058594 360.605469 860.058594 360.605469 C 860.058594 360.605469 857.285156 364.886719 855.539062 367.109375 C 853.792969 369.328125 850.78125 371.945312 846.261719 377.101562 C 841.742188 382.253906 838.09375 386.140625 833.257812 389.390625 C 832.625 389.867188 828.972656 391.214844 827.628906 392.246094 C 826.277344 393.277344 825.460938 393.96875 824.601562 394.632812 C 823.738281 395.296875 822.472656 398.085938 821.8125 399.214844 C 821.28125 400.078125 821.148438 402.070312 820.683594 403 C 820.21875 403.929688 820.21875 404.988281 821.214844 403.796875 C 821.214844 403.660156 821.878906 403.996094 822.871094 402.734375 C 823.867188 401.472656 823.933594 400.542969 824.929688 399.347656 C 824.996094 399.414062 824.53125 400.808594 824.269531 401.9375 C 824.003906 403.066406 823.070312 404.128906 823.738281 405.121094 C 824.402344 406.117188 825.394531 406.183594 826.191406 405.253906 C 826.125 405.253906 825.992188 406.25 826.589844 406.582031 C 827.1875 406.914062 827.984375 407.046875 828.449219 406.382812 C 828.914062 405.71875 829.113281 405.253906 829.113281 405.253906 C 829.113281 405.253906 829.113281 406.183594 829.910156 406.382812 C 830.707031 406.582031 831.304688 406.25 831.636719 405.71875 C 831.96875 405.1875 832.367188 404.65625 832.367188 404.65625 C 832.367188 404.65625 833.628906 404.195312 834.289062 404.128906 C 834.953125 404.0625 835.484375 403.730469 835.617188 402.800781 C 835.75 401.871094 835.949219 400.078125 836.347656 399.148438 C 836.746094 398.21875 837.542969 394.832031 838.207031 394.234375 C 838.871094 393.640625 844.644531 388.59375 848.03125 386.203125 C 851.414062 383.8125 856.460938 379.167969 858.183594 376.84375 C 858.515625 376.3125 860.839844 374.585938 860.839844 374.585938 C 860.839844 374.585938 860.761719 377.375 861.488281 380.492188 C 861.519531 380.617188 861.546875 380.75 861.570312 380.878906 L 861.160156 380.933594 C 860.472656 381.023438 859.992188 381.6875 860.085938 382.417969 L 860.574219 386.132812 C 860.667969 386.863281 861.300781 387.378906 861.988281 387.292969 L 862.015625 387.289062 C 861.953125 389.003906 861.765625 390.707031 861.4375 392.179688 C 861.1875 393.296875 861.0625 394.589844 860.984375 395.894531 L 856.722656 410.929688 C 855.023438 414.691406 853.144531 419.195312 852.011719 423.246094 C 850.886719 427.261719 850.183594 431.933594 849.644531 437.066406 C 848.753906 442.5 847.914062 447.730469 847.816406 448.910156 C 847.777344 449.414062 848.1875 450.082031 848.523438 450.273438 C 848.40625 451.777344 848.289062 453.300781 848.164062 454.84375 C 847.863281 457.730469 847.363281 459.523438 846.765625 460.71875 C 846.171875 461.914062 845.871094 468.386719 846.070312 471.371094 C 846.269531 474.359375 845.972656 475.753906 844.480469 480.734375 C 842.984375 485.710938 839.996094 499.953125 838.503906 506.722656 C 837.011719 513.492188 835.148438 518.738281 833.667969 520.851562 C 833.40625 521.222656 833.074219 521.726562 832.691406 522.304688 L 832.578125 522.242188 C 832.3125 522.097656 832.007812 522.148438 831.890625 522.355469 L 831.367188 523.300781 C 831.253906 523.503906 831.371094 523.785156 831.628906 523.933594 C 830.667969 525.40625 829.574219 527.097656 828.5625 528.617188 L 828.347656 528.484375 C 828.089844 528.320312 827.796875 528.332031 827.691406 528.5 L 827.203125 529.277344 C 827.097656 529.449219 827.21875 529.71875 827.476562 529.878906 L 827.636719 529.976562 C 827.175781 530.648438 826.746094 531.25 826.382812 531.730469 C 824.375 534.371094 822.472656 535.957031 821.097656 537.648438 C 820.921875 537.871094 820.699219 538.058594 820.457031 538.210938 L 820.390625 538.039062 C 820.28125 537.757812 820.039062 537.589844 819.851562 537.664062 L 819 538 C 818.8125 538.074219 818.75 538.363281 818.863281 538.644531 L 818.9375 538.835938 C 818.824219 538.863281 818.742188 538.878906 818.742188 538.878906 C 818.742188 538.878906 815.21875 538.738281 813.953125 540.21875 C 813.953125 540.289062 812.261719 540.289062 811.699219 540.359375 C 811.132812 540.429688 811.0625 540.921875 811.0625 540.921875 C 811.0625 540.921875 810.484375 541.824219 811.476562 542.75 C 811.035156 542.707031 810.25 542.683594 810.171875 543.117188 C 810.058594 543.722656 809.839844 544.050781 810.449219 544.269531 C 811.054688 544.488281 821.40625 546.296875 823.617188 545.144531 C 825.832031 543.996094 835.515625 538.296875 838.0625 538.023438 C 838.617188 538.078125 840.808594 539.015625 841.859375 540.382812 C 842.910156 541.753906 843.683594 544.824219 843.960938 545.207031 C 844.238281 545.59375 847.230469 545.097656 847.117188 544.496094 C 847.007812 543.894531 846.011719 539.070312 847.582031 536.214844 C 848.347656 534.824219 849.023438 534.078125 848.855469 533.417969 C 848.707031 532.824219 848.179688 532.769531 846.644531 533.132812 C 846.953125 532.753906 847.15625 532.328125 847.1875 531.835938 C 847.332031 529.652344 846.132812 528.457031 845.640625 526.976562 C 845.523438 526.625 845.417969 526.15625 845.339844 525.597656 L 845.75 525.621094 C 846.050781 525.636719 846.308594 525.441406 846.324219 525.179688 L 846.390625 523.992188 C 846.40625 523.730469 846.175781 523.503906 845.871094 523.488281 L 845.214844 523.449219 C 845.234375 521.925781 845.472656 520.128906 846.101562 518.304688 C 847.363281 514.65625 852.34375 502.441406 853.671875 500.050781 C 855 497.660156 858.515625 492.75 859.378906 486.308594 C 860.242188 479.871094 860.109375 475.953125 860.640625 474.160156 C 861.171875 472.367188 862.101562 467.921875 862.765625 466.261719 C 863.390625 464.695312 866.621094 455.023438 868.375 450.148438 L 876.472656 449.464844 C 878.320312 453.789062 880.132812 458.105469 880.355469 458.894531 C 880.816406 460.554688 880.417969 461.8125 881.617188 464.070312 C 882.808594 466.328125 884.269531 468.585938 890.175781 474.160156 C 890.839844 474.824219 893.296875 479.738281 895.152344 483.523438 C 897.011719 487.304688 909.027344 510.671875 909.957031 516.183594 C 910.074219 517.078125 910.1875 518.328125 910.238281 519.582031 L 910.082031 519.582031 C 909.785156 519.578125 909.539062 519.761719 909.535156 519.984375 L 909.507812 521.007812 C 909.503906 521.230469 909.742188 521.414062 910.039062 521.414062 L 910.253906 521.417969 C 910.226562 522.355469 910.140625 523.195312 909.957031 523.75 C 909.8125 524.183594 909.546875 524.9375 909.222656 525.835938 L 909.121094 525.796875 C 908.839844 525.691406 908.558594 525.746094 908.488281 525.925781 L 908.160156 526.726562 C 908.089844 526.902344 908.257812 527.128906 908.535156 527.238281 L 908.679688 527.292969 C 907.863281 529.464844 906.867188 531.902344 906.238281 532.84375 C 905.460938 534.011719 904.789062 535.5 904.148438 536.472656 L 903.972656 536.261719 C 903.792969 536.035156 903.515625 535.949219 903.359375 536.0625 L 902.644531 536.59375 C 902.488281 536.710938 902.511719 536.988281 902.695312 537.210938 L 902.988281 537.574219 C 902.003906 538.085938 900.417969 538.546875 899.402344 540.015625 C 899.402344 540.015625 897.144531 540.945312 896.484375 541.277344 C 895.847656 541.59375 895.402344 542.753906 897.035156 543.609375 C 896.644531 543.671875 895.761719 543.855469 895.8125 544.304688 C 895.875 544.878906 895.757812 545.234375 896.390625 545.273438 C 897.023438 545.308594 908.664062 543.457031 910.464844 541.882812 C 914.664062 538.207031 918.234375 533.277344 920.546875 532.359375 C 921.078125 532.265625 923.394531 532.535156 924.761719 533.5 C 926.125 534.460938 927.707031 537.035156 928.074219 537.308594 C 928.441406 537.582031 931.105469 536.351562 930.835938 535.835938 Z M 909.75 407.886719 C 909.691406 407.886719 909.636719 407.882812 909.585938 407.871094 C 908.902344 407.84375 908.019531 406.308594 908.050781 403.960938 C 908.050781 403.78125 908.070312 403.589844 908.074219 403.402344 C 908.460938 404.242188 908.910156 405.144531 909.492188 406.183594 C 909.804688 406.742188 910.078125 407.242188 910.339844 407.71875 C 910.117188 407.839844 909.914062 407.894531 909.75 407.886719 " fill-opacity="1" fill-rule="nonzero"/></g><path fill="#4682a9" d="M 841.835938 402.191406 C 839.984375 399.660156 836.339844 396.796875 832.847656 396.722656 C 832.738281 396.722656 832.628906 396.726562 832.519531 396.734375 L 832.660156 398.746094 C 832.71875 398.742188 832.785156 398.738281 832.847656 398.738281 C 834.351562 398.714844 836.503906 399.800781 838.160156 401.210938 C 838.992188 401.910156 839.707031 402.675781 840.191406 403.359375 C 840.6875 404.035156 840.898438 404.65625 840.878906 404.835938 C 840.878906 404.84375 840.878906 404.851562 840.878906 404.855469 C 840.832031 404.878906 840.769531 404.898438 840.636719 404.898438 C 840.28125 404.914062 839.503906 404.652344 838.597656 404.15625 C 835.789062 402.710938 831.921875 399.460938 828.058594 399.394531 C 827.191406 399.410156 824.9375 399.824219 820.765625 400.511719 C 808.386719 402.570312 780.371094 407.035156 737.921875 409.863281 C 723.1875 410.84375 710.191406 411.222656 698.917969 411.222656 C 680.488281 411.222656 666.671875 410.214844 657.433594 409.214844 C 656.589844 409.121094 655.792969 409.03125 655.023438 408.9375 C 654.851562 407.699219 653.796875 406.738281 652.507812 406.738281 C 652.085938 406.738281 651.691406 406.851562 651.34375 407.03125 L 651.230469 406.714844 C 650.988281 406.023438 649.96875 405.753906 648.957031 406.105469 L 644.996094 407.496094 C 644.757812 407.457031 644.535156 407.417969 644.351562 407.382812 C 644.050781 407.328125 643.820312 407.285156 643.65625 407.257812 C 643.574219 407.242188 643.511719 407.226562 643.457031 407.222656 C 643.378906 407.210938 643.414062 407.203125 643.207031 407.195312 L 643.207031 408.125 L 604.390625 421.746094 C 603.378906 422.101562 602.753906 422.949219 602.996094 423.640625 L 604.410156 427.671875 C 604.460938 427.816406 604.550781 427.9375 604.660156 428.042969 C 603.78125 428.496094 603.132812 430.011719 603.132812 431.820312 C 603.132812 433.988281 604.058594 435.746094 605.203125 435.746094 C 606.347656 435.746094 607.277344 433.988281 607.277344 431.820312 C 607.277344 430.351562 606.847656 429.066406 606.210938 428.398438 C 606.367188 428.371094 606.523438 428.335938 606.683594 428.28125 L 651.25 412.644531 C 651.75 412.46875 652.15625 412.171875 652.410156 411.832031 C 652.445312 411.832031 652.472656 411.839844 652.507812 411.839844 C 653.300781 411.839844 654 411.472656 654.46875 410.90625 C 655.464844 411.023438 656.527344 411.144531 657.65625 411.265625 C 666.960938 412.257812 680.703125 413.238281 698.917969 413.238281 C 710.234375 413.238281 723.277344 412.859375 738.058594 411.875 C 766.40625 409.984375 788.347656 407.367188 803.503906 405.21875 C 811.078125 404.144531 816.960938 403.1875 821.097656 402.503906 C 825.191406 401.816406 827.71875 401.394531 828.058594 401.410156 C 829.816406 401.382812 832.203125 402.640625 834.421875 404.015625 C 835.542969 404.695312 836.625 405.390625 837.648438 405.9375 C 838.675781 406.472656 839.613281 406.902344 840.636719 406.914062 C 841.042969 406.917969 841.476562 406.828125 841.867188 406.613281 C 842.535156 406.273438 842.925781 405.488281 842.894531 404.835938 C 842.871094 403.886719 842.4375 403.0625 841.835938 402.191406 Z M 652.507812 407.257812 C 653.488281 407.257812 654.308594 407.953125 654.5 408.875 C 653.5625 408.765625 652.691406 408.652344 651.871094 408.542969 L 651.515625 407.527344 C 651.808594 407.359375 652.144531 407.257812 652.507812 407.257812 Z M 652.664062 411.308594 C 652.710938 411.117188 652.707031 410.925781 652.644531 410.75 L 652.621094 410.675781 C 653.007812 410.726562 653.414062 410.777344 653.824219 410.824219 C 653.507812 411.097656 653.109375 411.273438 652.664062 411.308594 " fill-opacity="1" fill-rule="nonzero"/></svg>