<svg xmlns="http://www.w3.org/2000/svg" xmlns:xlink="http://www.w3.org/1999/xlink" width="2000" zoomAndPan="magnify" viewBox="0 0 1500 824.999997" height="1100" preserveAspectRatio="xMidYMid meet" version="1.0"><defs><clipPath id="43f4c7afa8"><path d="M 637 300.464844 L 863.332031 300.464844 L 863.332031 524.714844 L 637 524.714844 Z M 637 300.464844 " clip-rule="nonzero"/></clipPath></defs><g clip-path="url(#43f4c7afa8)"><path fill="#749bc2" d="M 767.820312 524.714844 C 762.808594 524.714844 758.03125 522.992188 754.039062 519.78125 C 749.023438 515.628906 746.128906 509.597656 746.128906 503.097656 L 746.128906 441.53125 C 746.128906 439.335938 747.851562 437.613281 750.042969 437.613281 C 752.234375 437.613281 753.960938 439.335938 753.960938 441.53125 L 753.960938 503.097656 C 753.960938 507.246094 755.761719 511.085938 758.972656 513.75 C 762.183594 516.410156 766.414062 517.429688 770.484375 516.644531 C 821.472656 506.621094 857.109375 461.503906 855.152344 409.339844 C 853.113281 354.746094 808.707031 310.410156 754.195312 308.375 C 725.371094 307.277344 697.957031 317.695312 677.203125 337.667969 C 656.371094 357.722656 644.933594 384.585938 644.933594 413.488281 C 644.933594 461.894531 677.671875 503.800781 724.589844 515.550781 C 726.703125 516.097656 727.957031 518.210938 727.40625 520.328125 C 726.859375 522.441406 724.746094 523.695312 722.628906 523.148438 C 672.269531 510.535156 637.101562 465.421875 637.101562 413.488281 C 637.101562 382.472656 649.398438 353.570312 671.722656 332.109375 C 694.042969 310.648438 723.414062 299.445312 754.507812 300.621094 C 813.09375 302.8125 860.789062 350.515625 862.984375 409.101562 C 865.097656 465.105469 826.878906 513.589844 772.050781 524.402344 C 770.640625 524.636719 769.230469 524.714844 767.820312 524.714844 Z M 726.3125 337.199219 C 722.238281 337.199219 719.027344 340.488281 719.027344 344.484375 L 719.027344 399.3125 C 719.027344 403.386719 722.316406 406.597656 726.3125 406.597656 C 730.382812 406.597656 733.59375 403.308594 733.59375 399.3125 L 733.59375 344.484375 C 733.671875 340.488281 730.382812 337.199219 726.3125 337.199219 Z M 781.136719 344.5625 L 781.136719 399.390625 C 781.136719 403.464844 777.847656 406.675781 773.851562 406.675781 C 769.859375 406.675781 766.570312 403.386719 766.570312 399.390625 L 766.570312 344.5625 C 766.570312 340.488281 769.859375 337.277344 773.851562 337.277344 C 777.847656 337.277344 781.136719 340.488281 781.136719 344.5625 Z M 781.136719 344.5625 " fill-opacity="1" fill-rule="nonzero"/></g><path fill="#4682a9" d="M 799.230469 371.351562 L 700.933594 371.351562 C 696.234375 371.351562 693.652344 376.832031 696.707031 380.4375 L 708.140625 399.3125 C 710.253906 402.757812 711.351562 406.753906 711.351562 410.75 L 711.351562 421.871094 C 711.351562 442.078125 727.722656 458.371094 747.851562 458.371094 L 752.394531 458.371094 C 772.601562 458.371094 788.890625 442 788.890625 421.871094 L 788.890625 410.75 C 788.890625 406.675781 789.988281 402.757812 792.101562 399.3125 L 803.539062 380.4375 C 806.511719 376.832031 803.929688 371.351562 799.230469 371.351562 Z M 799.230469 371.351562 " fill-opacity="1" fill-rule="nonzero"/></svg>