<svg xmlns="http://www.w3.org/2000/svg" xmlns:xlink="http://www.w3.org/1999/xlink" width="2000" zoomAndPan="magnify" viewBox="0 0 1500 899.99999" height="1200" preserveAspectRatio="xMidYMid meet" version="1.0"><path fill="#26a69a" d="M 888.0625 544.585938 C 888.0625 544.585938 882.765625 556.578125 883.230469 564.359375 C 883.332031 566.167969 883.773438 567.746094 884.339844 569.113281 C 886.332031 573.664062 893.285156 573.25 894.707031 568.496094 C 895.121094 567.074219 895.351562 565.445312 895.25 563.636719 C 894.785156 555.878906 888.0625 544.585938 888.0625 544.585938 Z M 888.0625 544.585938 " fill-opacity="1" fill-rule="nonzero"/><path fill="#26a69a" d="M 881.601562 589.042969 C 881.601562 589.371094 881.570312 589.699219 881.507812 590.019531 C 881.441406 590.34375 881.347656 590.65625 881.21875 590.960938 C 881.09375 591.265625 880.9375 591.554688 880.753906 591.828125 C 880.570312 592.101562 880.359375 592.355469 880.125 592.585938 C 879.890625 592.820312 879.636719 593.027344 879.363281 593.210938 C 879.085938 593.390625 878.796875 593.546875 878.488281 593.671875 C 878.183594 593.796875 877.867188 593.894531 877.542969 593.957031 C 877.21875 594.019531 876.890625 594.054688 876.558594 594.054688 C 876.230469 594.054688 875.902344 594.019531 875.578125 593.957031 C 875.25 593.894531 874.9375 593.796875 874.628906 593.671875 C 874.324219 593.546875 874.035156 593.390625 873.757812 593.210938 C 873.484375 593.027344 873.226562 592.820312 872.996094 592.585938 C 872.761719 592.355469 872.550781 592.101562 872.367188 591.828125 C 872.183594 591.554688 872.027344 591.265625 871.902344 590.960938 C 871.773438 590.65625 871.679688 590.34375 871.613281 590.019531 C 871.550781 589.699219 871.515625 589.371094 871.515625 589.042969 C 871.515625 588.714844 871.550781 588.390625 871.613281 588.066406 C 871.679688 587.742188 871.773438 587.429688 871.902344 587.125 C 872.027344 586.824219 872.183594 586.535156 872.367188 586.261719 C 872.550781 585.988281 872.761719 585.734375 872.996094 585.5 C 873.226562 585.269531 873.484375 585.0625 873.757812 584.878906 C 874.035156 584.695312 874.324219 584.542969 874.628906 584.414062 C 874.9375 584.289062 875.25 584.195312 875.578125 584.128906 C 875.902344 584.066406 876.230469 584.035156 876.558594 584.035156 C 876.890625 584.035156 877.21875 584.066406 877.542969 584.128906 C 877.867188 584.195312 878.183594 584.289062 878.488281 584.414062 C 878.796875 584.542969 879.085938 584.695312 879.363281 584.878906 C 879.636719 585.0625 879.890625 585.269531 880.125 585.5 C 880.359375 585.734375 880.570312 585.988281 880.753906 586.261719 C 880.9375 586.535156 881.09375 586.824219 881.21875 587.125 C 881.347656 587.429688 881.441406 587.742188 881.507812 588.066406 C 881.570312 588.390625 881.601562 588.714844 881.601562 589.042969 Z M 881.601562 589.042969 " fill-opacity="1" fill-rule="nonzero"/><path fill="#26a69a" d="M 873.121094 535.226562 C 872.476562 524.992188 863.585938 510.101562 863.585938 510.101562 C 863.585938 510.101562 856.605469 525.972656 857.25 536.210938 C 857.40625 538.613281 857.976562 540.679688 858.75 542.492188 C 861.386719 548.511719 870.589844 547.945312 872.425781 541.636719 C 872.96875 539.773438 873.277344 537.632812 873.121094 535.226562 Z M 873.121094 535.226562 " fill-opacity="1" fill-rule="nonzero"/><path fill="#26a69a" d="M 887.027344 519.875 C 890.75 522.5625 896.074219 518.996094 894.914062 514.574219 C 894.578125 513.257812 893.980469 511.859375 893.050781 510.488281 C 888.992188 504.570312 878.316406 498.753906 878.316406 498.753906 C 878.316406 498.753906 879.816406 510.695312 883.875 516.617188 C 884.832031 518.007812 885.917969 519.070312 887.027344 519.875 Z M 887.027344 519.875 " fill-opacity="1" fill-rule="nonzero"/><path fill="#26a69a" d="M 803.382812 488.4375 C 813.644531 495.574219 820.496094 503.585938 824.8125 509.609375 C 829.902344 508.859375 837.710938 507.128906 846.214844 502.550781 C 854.847656 497.925781 860.664062 492.289062 864.074219 488.4375 L 764.117188 439.015625 L 829.75 374.109375 C 835.875 368.035156 835.875 358.1875 829.75 352.113281 L 771.691406 294.675781 C 765.539062 288.601562 755.5625 288.601562 749.4375 294.675781 L 641.390625 401.535156 C 635.261719 407.609375 635.261719 417.457031 641.390625 423.53125 L 703.195312 484.664062 C 707.664062 489.085938 714.386719 490.429688 720.253906 488.050781 C 725.835938 485.828125 731.421875 483.578125 736.976562 481.332031 C 758.714844 472.566406 783.582031 474.84375 802.867188 488.078125 C 803.046875 488.183594 803.203125 488.3125 803.382812 488.4375 Z M 740.3125 317.8125 L 748.816406 309.410156 C 753.339844 304.9375 760.65625 304.9375 765.152344 309.410156 L 807.699219 351.492188 C 809.972656 353.714844 811.085938 356.664062 811.085938 359.582031 C 811.085938 362.503906 809.972656 365.449219 807.699219 367.675781 C 806.691406 368.65625 805.527344 369.429688 804.289062 370 Z M 740.3125 317.8125 " fill-opacity="1" fill-rule="nonzero"/><path fill="#26a69a" d="M 848.460938 574.023438 C 848.230469 575.832031 848.359375 577.460938 848.667969 578.910156 C 849.753906 583.769531 856.683594 584.648438 858.957031 580.226562 C 859.65625 578.910156 860.171875 577.359375 860.40625 575.546875 C 861.414062 567.820312 856.941406 555.515625 856.941406 555.515625 C 856.941406 555.515625 849.472656 566.320312 848.460938 574.023438 Z M 848.460938 574.023438 " fill-opacity="1" fill-rule="nonzero"/><path fill="#26a69a" d="M 842.648438 597.859375 C 839.699219 600.804688 839.699219 605.535156 842.648438 608.457031 C 845.621094 611.378906 850.402344 611.378906 853.347656 608.457031 C 856.320312 605.535156 856.320312 600.804688 853.347656 597.859375 C 850.402344 594.9375 845.617188 594.9375 842.648438 597.859375 Z M 842.648438 597.859375 " fill-opacity="1" fill-rule="nonzero"/><path fill="#26a69a" d="M 822.382812 584.90625 C 822.175781 586.558594 822.277344 588.058594 822.5625 589.378906 C 823.570312 593.847656 829.929688 594.652344 832.023438 590.59375 C 832.667969 589.378906 833.160156 587.929688 833.367188 586.277344 C 834.273438 579.191406 830.160156 567.871094 830.160156 567.871094 C 830.160156 567.871094 823.285156 577.796875 822.382812 584.90625 Z M 822.382812 584.90625 " fill-opacity="1" fill-rule="nonzero"/><path fill="#26a69a" d="M 830.03125 548.101562 C 833.78125 538.535156 831.996094 521.347656 831.996094 521.347656 C 831.996094 521.347656 818.945312 532.847656 815.195312 542.414062 C 814.316406 544.660156 813.953125 546.78125 813.902344 548.746094 C 813.722656 555.285156 822.328125 558.59375 826.671875 553.632812 C 827.964844 552.15625 829.152344 550.347656 830.03125 548.101562 Z M 830.03125 548.101562 " fill-opacity="1" fill-rule="nonzero"/><path fill="#26a69a" d="M 799.816406 573.148438 C 797.851562 575.113281 797.851562 578.265625 799.816406 580.230469 C 801.78125 582.167969 804.984375 582.167969 806.949219 580.230469 C 808.941406 578.265625 808.941406 575.113281 806.949219 573.148438 C 804.984375 571.207031 801.78125 571.207031 799.816406 573.148438 Z M 799.816406 573.148438 " fill-opacity="1" fill-rule="nonzero"/><path fill="#007267" d="M 895.25 563.636719 C 895.351562 565.445312 895.121094 567.074219 894.707031 568.496094 C 893.285156 573.25 886.332031 573.664062 884.339844 569.113281 C 883.773438 567.746094 883.332031 566.167969 883.230469 564.359375 C 882.765625 556.578125 888.0625 544.585938 888.0625 544.585938 C 888.0625 544.585938 894.785156 555.878906 895.25 563.636719 Z M 895.25 563.636719 " fill-opacity="1" fill-rule="nonzero"/><path fill="#007267" d="M 881.601562 589.042969 C 881.601562 589.371094 881.570312 589.699219 881.507812 590.019531 C 881.441406 590.34375 881.347656 590.65625 881.21875 590.960938 C 881.09375 591.265625 880.9375 591.554688 880.753906 591.828125 C 880.570312 592.101562 880.359375 592.355469 880.125 592.585938 C 879.890625 592.820312 879.636719 593.027344 879.363281 593.210938 C 879.085938 593.390625 878.796875 593.546875 878.488281 593.671875 C 878.183594 593.796875 877.867188 593.894531 877.542969 593.957031 C 877.21875 594.019531 876.890625 594.054688 876.558594 594.054688 C 876.230469 594.054688 875.902344 594.019531 875.578125 593.957031 C 875.25 593.894531 874.9375 593.796875 874.628906 593.671875 C 874.324219 593.546875 874.035156 593.390625 873.757812 593.210938 C 873.484375 593.027344 873.226562 592.820312 872.996094 592.585938 C 872.761719 592.355469 872.550781 592.101562 872.367188 591.828125 C 872.183594 591.554688 872.027344 591.265625 871.902344 590.960938 C 871.773438 590.65625 871.679688 590.34375 871.613281 590.019531 C 871.550781 589.699219 871.515625 589.371094 871.515625 589.042969 C 871.515625 588.714844 871.550781 588.390625 871.613281 588.066406 C 871.679688 587.742188 871.773438 587.429688 871.902344 587.125 C 872.027344 586.824219 872.183594 586.535156 872.367188 586.261719 C 872.550781 585.988281 872.761719 585.734375 872.996094 585.5 C 873.226562 585.269531 873.484375 585.0625 873.757812 584.878906 C 874.035156 584.695312 874.324219 584.542969 874.628906 584.414062 C 874.9375 584.289062 875.25 584.195312 875.578125 584.128906 C 875.902344 584.066406 876.230469 584.035156 876.558594 584.035156 C 876.890625 584.035156 877.21875 584.066406 877.542969 584.128906 C 877.867188 584.195312 878.183594 584.289062 878.488281 584.414062 C 878.796875 584.542969 879.085938 584.695312 879.363281 584.878906 C 879.636719 585.0625 879.890625 585.269531 880.125 585.5 C 880.359375 585.734375 880.570312 585.988281 880.753906 586.261719 C 880.9375 586.535156 881.09375 586.824219 881.21875 587.125 C 881.347656 587.429688 881.441406 587.742188 881.507812 588.066406 C 881.570312 588.390625 881.601562 588.714844 881.601562 589.042969 Z M 881.601562 589.042969 " fill-opacity="1" fill-rule="nonzero"/><path fill="#007267" d="M 873.121094 535.226562 C 873.277344 537.632812 872.96875 539.777344 872.425781 541.636719 C 870.589844 547.945312 861.386719 548.511719 858.75 542.492188 C 857.976562 540.679688 857.40625 538.613281 857.25 536.210938 C 856.605469 525.972656 863.585938 510.101562 863.585938 510.101562 C 863.585938 510.101562 872.476562 524.992188 873.121094 535.226562 Z M 873.121094 535.226562 " fill-opacity="1" fill-rule="nonzero"/><path fill="#007267" d="M 894.914062 514.574219 C 896.074219 518.996094 890.75 522.5625 887.027344 519.875 C 885.917969 519.070312 884.832031 518.011719 883.875 516.617188 C 879.816406 510.695312 878.316406 498.753906 878.316406 498.753906 C 878.316406 498.753906 888.992188 504.570312 893.050781 510.488281 C 893.980469 511.859375 894.578125 513.257812 894.914062 514.574219 Z M 894.914062 514.574219 " fill-opacity="1" fill-rule="nonzero"/><path fill="#007267" d="M 856.941406 555.519531 C 856.941406 555.519531 861.414062 567.824219 860.40625 575.550781 C 860.171875 577.359375 859.65625 578.910156 858.957031 580.230469 C 856.683594 584.648438 849.753906 583.769531 848.667969 578.910156 C 848.359375 577.464844 848.230469 575.835938 848.460938 574.027344 C 849.472656 566.324219 856.941406 555.519531 856.941406 555.519531 Z M 856.941406 555.519531 " fill-opacity="1" fill-rule="nonzero"/><path fill="#007267" d="M 853.347656 597.859375 C 856.320312 600.804688 856.320312 605.535156 853.347656 608.457031 C 850.402344 611.378906 845.621094 611.378906 842.648438 608.457031 C 839.699219 605.535156 839.699219 600.804688 842.648438 597.859375 C 845.621094 594.9375 850.402344 594.9375 853.347656 597.859375 Z M 853.347656 597.859375 " fill-opacity="1" fill-rule="nonzero"/><path fill="#007267" d="M 830.160156 567.875 C 830.160156 567.875 834.273438 579.195312 833.367188 586.277344 C 833.160156 587.933594 832.667969 589.378906 832.023438 590.59375 C 829.929688 594.652344 823.570312 593.851562 822.5625 589.378906 C 822.277344 588.0625 822.175781 586.5625 822.382812 584.910156 C 823.285156 577.800781 830.160156 567.875 830.160156 567.875 Z M 830.160156 567.875 " fill-opacity="1" fill-rule="nonzero"/><path fill="#007267" d="M 831.996094 521.347656 C 831.996094 521.347656 833.78125 538.535156 830.03125 548.101562 C 829.152344 550.347656 827.964844 552.15625 826.671875 553.632812 C 822.328125 558.59375 813.722656 555.285156 813.902344 548.746094 C 813.953125 546.78125 814.316406 544.660156 815.195312 542.414062 C 818.945312 532.847656 831.996094 521.347656 831.996094 521.347656 Z M 831.996094 521.347656 " fill-opacity="1" fill-rule="nonzero"/><path fill="#007267" d="M 806.949219 573.148438 C 808.941406 575.113281 808.941406 578.265625 806.949219 580.230469 C 804.984375 582.167969 801.78125 582.167969 799.816406 580.230469 C 797.851562 578.265625 797.851562 575.113281 799.816406 573.148438 C 801.78125 571.207031 804.984375 571.207031 806.949219 573.148438 Z M 806.949219 573.148438 " fill-opacity="1" fill-rule="nonzero"/><path fill="#007267" d="M 740.3125 317.816406 L 804.289062 370.003906 C 802.066406 371.011719 799.53125 371.296875 797.050781 370.753906 C 794.492188 370.183594 791.621094 369.433594 788.519531 368.425781 C 780.636719 360.957031 771.898438 353.226562 762.335938 345.472656 C 753.625 338.390625 745.121094 331.980469 736.953125 326.164062 C 736.875 323.140625 738.011719 320.113281 740.3125 317.816406 Z M 740.3125 317.816406 " fill-opacity="1" fill-rule="nonzero"/><path fill="#007267" d="M 788.519531 368.425781 C 780.273438 365.816406 770.425781 361.5 760.550781 354.285156 C 750.753906 347.125 743.851562 339.21875 739.097656 332.601562 C 737.703125 330.636719 737.003906 328.386719 736.953125 326.164062 C 745.121094 331.980469 753.625 338.390625 762.335938 345.472656 C 771.898438 353.226562 780.636719 360.957031 788.519531 368.425781 Z M 788.519531 368.425781 " fill-opacity="1" fill-rule="nonzero"/><path fill="#007267" d="M 846.214844 502.554688 C 837.710938 507.128906 829.902344 508.863281 824.8125 509.609375 C 820.496094 503.589844 813.644531 495.574219 803.382812 488.441406 C 803.203125 488.3125 803.046875 488.183594 802.867188 488.078125 C 783.582031 474.84375 758.714844 472.570312 736.976562 481.332031 C 731.421875 483.582031 725.835938 485.832031 720.253906 488.054688 C 714.386719 490.429688 707.664062 489.085938 703.195312 484.667969 L 641.390625 423.535156 C 635.261719 417.460938 635.261719 407.613281 641.390625 401.539062 L 705.027344 338.597656 C 672.046875 371.683594 693.242188 443.621094 758.535156 457.886719 C 823.878906 472.128906 846.214844 502.554688 846.214844 502.554688 Z M 846.214844 502.554688 " fill-opacity="1" fill-rule="nonzero"/></svg>