<svg xmlns="http://www.w3.org/2000/svg" xmlns:xlink="http://www.w3.org/1999/xlink" width="2000" zoomAndPan="magnify" viewBox="0 0 1500 899.99999" height="1200" preserveAspectRatio="xMidYMid meet" version="1.0"><defs><g/><clipPath id="ac0b8d6308"><path d="M 587.523438 196 L 912.273438 196 L 912.273438 520.75 L 587.523438 520.75 Z M 587.523438 196 " clip-rule="nonzero"/></clipPath><clipPath id="525720e477"><path d="M 629 251 L 855 251 L 855 459 L 629 459 Z M 629 251 " clip-rule="nonzero"/></clipPath><clipPath id="0f71e37565"><path d="M 664.296875 263.511719 L 690.785156 287.78125 L 685.675781 304.238281 L 667.730469 308.925781 L 641.242188 284.632812 L 629.261719 295.617188 L 659.699219 335.839844 L 695.589844 329.578125 L 821.558594 452.566406 C 840.855469 470.390625 866.875 443.664062 848.824219 428.445312 L 714.230469 311.714844 L 722.425781 278.429688 L 677.171875 251.683594 Z M 829.980469 435.886719 C 833.414062 432.738281 838.972656 432.738281 842.40625 435.886719 C 845.839844 439.035156 845.839844 444.132812 842.40625 447.28125 C 838.972656 450.410156 833.414062 450.410156 829.980469 447.28125 C 826.546875 444.132812 826.546875 439.035156 829.980469 435.886719 Z M 829.980469 435.886719 " clip-rule="nonzero"/></clipPath><clipPath id="1d6b6ca876"><path d="M 634 249 L 869.878906 249 L 869.878906 456 L 634 456 Z M 634 249 " clip-rule="nonzero"/></clipPath><clipPath id="3c114b1165"><path d="M 732.523438 253.765625 L 734.078125 254.0625 C 752.144531 248.554688 792.699219 270.257812 783.664062 289.601562 C 781.375 292.636719 781.761719 298.035156 784.523438 301.425781 L 733.8125 347.945312 C 730.96875 345.339844 724.65625 345.398438 721.753906 347.945312 L 637.886719 421.753906 C 630.242188 428.484375 636.253906 434.199219 639.484375 437.21875 L 654.527344 451.011719 C 657.816406 454.011719 666.503906 458.058594 672.675781 452.0625 L 751.820312 375.574219 C 754.578125 372.910156 754.597656 367.195312 751.820312 364.570312 C 751.820312 364.570312 751.839844 364.535156 751.820312 364.535156 L 802.734375 317.863281 C 808.109375 322.304688 813.1875 322.691406 818.003906 321.480469 C 827.304688 319.148438 832.488281 327.492188 838.054688 333.589844 L 835.539062 335.855469 C 831.820312 339.304688 832.167969 345.117188 836.335938 348.9375 C 840.507812 352.761719 846.863281 353.082031 850.582031 349.671875 L 867.222656 334.433594 C 870.941406 330.984375 870.59375 325.171875 866.402344 321.367188 C 862.640625 317.902344 857.183594 317.453125 853.382812 319.925781 C 841.976562 308.191406 847.964844 306.429688 832.921875 291.15625 L 804.738281 264.746094 C 784.441406 246.492188 758.074219 246.511719 732.523438 253.765625 Z M 732.523438 253.765625 " clip-rule="nonzero"/></clipPath></defs><g clip-path="url(#ac0b8d6308)"><path stroke-linecap="butt" transform="matrix(0.75, 0, 0, 0.75, 587.524729, 195.998916)" fill="none" stroke-linejoin="miter" d="M -0.00172234 0.00144514 L 433.263898 0.00144514 L 433.263898 433.267065 L -0.00172234 433.267065 Z M -0.00172234 0.00144514 " stroke="#007267" stroke-width="20" stroke-opacity="1" stroke-miterlimit="4"/></g><path fill="#26a69a" d="M 664.296875 263.511719 L 690.785156 287.78125 L 685.675781 304.238281 L 667.730469 308.925781 L 641.242188 284.632812 L 629.261719 295.617188 L 659.699219 335.839844 L 695.589844 329.578125 L 821.558594 452.566406 C 840.855469 470.390625 866.875 443.664062 848.824219 428.445312 L 714.230469 311.714844 L 722.425781 278.429688 L 677.171875 251.683594 Z M 829.980469 435.886719 C 833.414062 432.738281 838.972656 432.738281 842.40625 435.886719 C 845.839844 439.035156 845.839844 444.132812 842.40625 447.28125 C 838.972656 450.410156 833.414062 450.410156 829.980469 447.28125 C 826.546875 444.132812 826.546875 439.035156 829.980469 435.886719 Z M 829.980469 435.886719 " fill-opacity="1" fill-rule="nonzero"/><path fill="#26a69a" d="M 664.296875 263.511719 L 690.785156 287.78125 L 685.675781 304.238281 L 667.730469 308.925781 L 641.242188 284.632812 L 629.261719 295.617188 L 659.699219 335.839844 L 695.589844 329.578125 L 821.558594 452.566406 C 840.855469 470.390625 866.875 443.664062 848.824219 428.445312 L 714.230469 311.714844 L 722.425781 278.429688 L 677.171875 251.683594 Z M 829.980469 435.886719 C 833.414062 432.738281 838.972656 432.738281 842.40625 435.886719 C 845.839844 439.035156 845.839844 444.132812 842.40625 447.28125 C 838.972656 450.410156 833.414062 450.410156 829.980469 447.28125 C 826.546875 444.132812 826.546875 439.035156 829.980469 435.886719 Z M 829.980469 435.886719 " fill-opacity="1" fill-rule="nonzero"/><path fill="#26a69a" d="M 664.296875 263.511719 L 690.785156 287.78125 L 685.675781 304.238281 L 667.730469 308.925781 L 641.242188 284.632812 L 629.261719 295.617188 L 659.699219 335.839844 L 695.589844 329.578125 L 821.558594 452.566406 C 840.855469 470.390625 866.875 443.664062 848.824219 428.445312 L 714.230469 311.714844 L 722.425781 278.429688 L 677.171875 251.683594 Z M 829.980469 435.886719 C 833.414062 432.738281 838.972656 432.738281 842.40625 435.886719 C 845.839844 439.035156 845.839844 444.132812 842.40625 447.28125 C 838.972656 450.410156 833.414062 450.410156 829.980469 447.28125 C 826.546875 444.132812 826.546875 439.035156 829.980469 435.886719 Z M 829.980469 435.886719 " fill-opacity="1" fill-rule="nonzero"/><g clip-path="url(#525720e477)"><g clip-path="url(#0f71e37565)"><path fill="#26a69a" d="M 664.296875 263.511719 L 690.785156 287.78125 L 685.675781 304.238281 L 667.730469 308.925781 L 641.242188 284.632812 L 629.261719 295.617188 L 659.699219 335.839844 L 695.589844 329.578125 L 821.558594 452.566406 C 840.855469 470.390625 866.875 443.664062 848.824219 428.445312 L 714.230469 311.714844 L 722.425781 278.429688 L 677.171875 251.683594 Z M 829.980469 435.886719 C 833.414062 432.738281 838.972656 432.738281 842.40625 435.886719 C 845.839844 439.035156 845.839844 444.132812 842.40625 447.28125 C 838.972656 450.410156 833.414062 450.410156 829.980469 447.28125 C 826.546875 444.132812 826.546875 439.035156 829.980469 435.886719 Z M 829.980469 435.886719 " fill-opacity="1" fill-rule="nonzero"/></g></g><path fill="#26a69a" d="M 668.203125 260.136719 L 695.691406 285.214844 L 688.886719 307.125 L 666.503906 313.253906 L 638.773438 287.5 L 629.101562 296.011719 L 658.125 333.382812 L 696.753906 325.625 L 824.503906 450.007812 C 839.832031 465.5625 865.789062 445 847.273438 428.265625 L 710.53125 309.996094 L 718.421875 277.816406 L 677.625 251.519531 L 668.203125 260.140625 Z M 831.65625 435.007812 C 835.066406 431.875 841.117188 431.257812 844.53125 434.445312 C 848.007812 437.574219 850.785156 443.121094 845.859375 449.140625 C 841.773438 452.886719 835.230469 452.738281 831.144531 448.6875 C 827.710938 445.539062 828.179688 438.191406 831.65625 435.007812 Z M 831.65625 435.007812 " fill-opacity="1" fill-rule="nonzero"/><path fill="#26a69a" d="M 667.929688 260.179688 L 715.902344 304.503906 L 722.480469 278.507812 L 677.3125 251.519531 L 667.929688 260.175781 Z M 667.929688 260.179688 " fill-opacity="1" fill-rule="nonzero"/><path fill="#26a69a" d="M 763.058594 354.078125 L 772.523438 362.097656 C 773.300781 370.195312 771.03125 372.632812 756.519531 383.914062 L 738.941406 366.632812 L 763.039062 354.078125 Z M 763.058594 354.078125 " fill-opacity="1" fill-rule="nonzero"/><path fill="#26a69a" d="M 732.523438 253.765625 L 734.078125 254.0625 C 752.144531 248.554688 792.699219 270.257812 783.664062 289.601562 C 781.375 292.636719 781.761719 298.035156 784.523438 301.425781 L 733.8125 347.945312 C 730.96875 345.339844 724.65625 345.398438 721.753906 347.945312 L 637.886719 421.753906 C 630.242188 428.484375 636.253906 434.199219 639.484375 437.21875 L 654.527344 451.011719 C 657.816406 454.011719 666.503906 458.058594 672.675781 452.0625 L 751.820312 375.574219 C 754.578125 372.910156 754.597656 367.195312 751.820312 364.570312 C 751.820312 364.570312 751.839844 364.535156 751.820312 364.535156 L 802.734375 317.863281 C 808.109375 322.304688 813.1875 322.691406 818.003906 321.480469 C 827.304688 319.148438 832.488281 327.492188 838.054688 333.589844 L 835.539062 335.855469 C 831.820312 339.304688 832.167969 345.117188 836.335938 348.9375 C 840.507812 352.761719 846.863281 353.082031 850.582031 349.671875 L 867.222656 334.433594 C 870.941406 330.984375 870.59375 325.171875 866.402344 321.367188 C 862.640625 317.902344 857.183594 317.453125 853.382812 319.925781 C 841.976562 308.191406 847.964844 306.429688 832.921875 291.15625 L 804.738281 264.746094 C 784.441406 246.492188 758.074219 246.511719 732.523438 253.765625 Z M 732.523438 253.765625 " fill-opacity="1" fill-rule="nonzero"/><path fill="#26a69a" d="M 732.523438 253.765625 L 734.078125 254.0625 C 752.144531 248.554688 792.699219 270.257812 783.664062 289.601562 C 781.375 292.636719 781.761719 298.035156 784.523438 301.425781 L 733.8125 347.945312 C 730.96875 345.339844 724.65625 345.398438 721.753906 347.945312 L 637.886719 421.753906 C 630.242188 428.484375 636.253906 434.199219 639.484375 437.21875 L 654.527344 451.011719 C 657.816406 454.011719 666.503906 458.058594 672.675781 452.0625 L 751.820312 375.574219 C 754.578125 372.910156 754.597656 367.195312 751.820312 364.570312 C 751.820312 364.570312 751.839844 364.535156 751.820312 364.535156 L 802.734375 317.863281 C 808.109375 322.304688 813.1875 322.691406 818.003906 321.480469 C 827.304688 319.148438 832.488281 327.492188 838.054688 333.589844 L 835.539062 335.855469 C 831.820312 339.304688 832.167969 345.117188 836.335938 348.9375 C 840.507812 352.761719 846.863281 353.082031 850.582031 349.671875 L 867.222656 334.433594 C 870.941406 330.984375 870.59375 325.171875 866.402344 321.367188 C 862.640625 317.902344 857.183594 317.453125 853.382812 319.925781 C 841.976562 308.191406 847.964844 306.429688 832.921875 291.15625 L 804.738281 264.746094 C 784.441406 246.492188 758.074219 246.511719 732.523438 253.765625 Z M 732.523438 253.765625 " fill-opacity="1" fill-rule="nonzero"/><path fill="#26a69a" d="M 787.957031 298.273438 L 727.761719 353.472656 L 745.808594 370.023438 L 806.003906 314.84375 Z M 787.957031 298.273438 " fill-opacity="1" fill-rule="nonzero"/><path fill="#26a69a" d="M 800.238281 309.542969 L 740.046875 364.722656 L 745.808594 370.027344 L 806.003906 314.847656 Z M 800.238281 309.542969 " fill-opacity="1" fill-rule="nonzero"/><path fill="#26a69a" d="M 795.191406 300.691406 L 735.242188 355.664062 L 742.988281 362.769531 L 801.402344 306.390625 Z M 795.191406 300.691406 " fill-opacity="1" fill-rule="nonzero"/><path fill="#26a69a" d="M 732.523438 253.769531 L 734.078125 254.066406 C 752.148438 248.558594 792.699219 270.261719 783.664062 289.605469 C 781.375 292.640625 781.765625 298.039062 784.523438 301.429688 L 802.734375 317.867188 C 808.109375 322.3125 813.179688 322.6875 818.003906 321.484375 C 827.300781 319.179688 832.472656 327.484375 838.054688 333.59375 L 835.539062 335.863281 C 831.820312 339.3125 832.167969 345.121094 836.335938 348.945312 C 840.507812 352.769531 846.863281 353.085938 850.582031 349.675781 L 867.21875 334.4375 C 870.941406 330.988281 870.59375 325.179688 866.402344 321.375 C 862.640625 317.90625 857.183594 317.457031 853.382812 319.929688 C 841.976562 308.199219 847.964844 306.4375 832.921875 291.160156 L 804.738281 264.75 C 784.441406 246.496094 758.074219 246.515625 732.527344 253.769531 Z M 732.523438 253.769531 " fill-opacity="1" fill-rule="nonzero"/><path fill="#26a69a" d="M 853.375 319.921875 C 841.972656 308.191406 847.960938 306.425781 832.917969 291.152344 L 804.730469 264.742188 C 793.101562 254.285156 779.46875 249.824219 765.160156 249.261719 L 849.226562 327.101562 L 855.304688 321.984375 Z M 853.375 319.921875 " fill-opacity="1" fill-rule="nonzero"/><path fill="#26a69a" d="M 784.953125 283.753906 C 785.054688 285.628906 784.585938 287.503906 783.625 289.605469 C 781.375 292.640625 781.765625 298.039062 784.523438 301.429688 L 802.734375 317.867188 C 808.109375 322.308594 813.179688 322.683594 818.003906 321.484375 C 820.210938 320.867188 822.214844 320.980469 824.09375 321.484375 C 829.816406 322.929688 784.933594 282.96875 784.953125 283.570312 L 784.953125 283.757812 Z M 784.953125 283.753906 " fill-opacity="1" fill-rule="nonzero"/><path fill="#26a69a" d="M 733.8125 347.945312 C 730.972656 345.339844 724.65625 345.398438 721.753906 347.945312 L 637.894531 421.757812 C 630.25 428.484375 636.21875 434.203125 639.488281 437.21875 L 654.53125 451.015625 C 657.824219 454.011719 666.507812 458.0625 672.683594 452.0625 L 751.824219 375.574219 C 754.582031 372.914062 754.601562 367.195312 751.824219 364.570312 C 751.824219 364.570312 751.84375 364.535156 751.824219 364.535156 L 733.816406 347.945312 Z M 733.8125 347.945312 " fill-opacity="1" fill-rule="nonzero"/><path fill="#26a69a" d="M 639.460938 437.203125 L 654.503906 451.015625 C 657.796875 454.011719 666.214844 458.304688 672.390625 452.34375 L 751.835938 375.554688 C 754.597656 372.875 754.679688 367.121094 751.835938 364.535156 L 733.789062 347.964844 Z M 639.460938 437.203125 " fill-opacity="1" fill-rule="nonzero"/><path fill="#26a69a" d="M 723.121094 354.414062 L 643.652344 425.710938 C 640.339844 428.636719 641.464844 432.742188 643.855469 434.878906 L 652.296875 442.320312 L 738.894531 360.601562 L 730.882812 353.703125 C 729.167969 352.203125 725.160156 352.632812 723.117188 354.414062 Z M 723.121094 354.414062 " fill-opacity="1" fill-rule="nonzero"/><g clip-path="url(#1d6b6ca876)"><g clip-path="url(#3c114b1165)"><path fill="#26a69a" d="M 732.523438 253.765625 L 734.078125 254.0625 C 752.144531 248.554688 792.699219 270.257812 783.664062 289.601562 C 781.375 292.636719 781.761719 298.035156 784.523438 301.425781 L 733.8125 347.945312 C 730.96875 345.339844 724.65625 345.398438 721.753906 347.945312 L 637.886719 421.753906 C 630.242188 428.484375 636.253906 434.199219 639.484375 437.21875 L 654.527344 451.011719 C 657.816406 454.011719 666.503906 458.058594 672.675781 452.0625 L 751.820312 375.574219 C 754.578125 372.910156 754.597656 367.195312 751.820312 364.570312 C 751.820312 364.570312 751.839844 364.535156 751.820312 364.535156 L 802.734375 317.863281 C 808.109375 322.304688 813.1875 322.691406 818.003906 321.480469 C 827.304688 319.148438 832.488281 327.492188 838.054688 333.589844 L 835.539062 335.855469 C 831.820312 339.304688 832.167969 345.117188 836.335938 348.9375 C 840.507812 352.761719 846.863281 353.082031 850.582031 349.671875 L 867.222656 334.433594 C 870.941406 330.984375 870.59375 325.171875 866.402344 321.367188 C 862.640625 317.902344 857.183594 317.453125 853.382812 319.925781 C 841.976562 308.191406 847.964844 306.429688 832.921875 291.15625 L 804.738281 264.746094 C 784.441406 246.492188 758.074219 246.511719 732.523438 253.765625 Z M 732.523438 253.765625 " fill-opacity="1" fill-rule="nonzero"/></g></g><path fill="#26a69a" d="M 864.660156 323.601562 C 867.75 326.300781 868.339844 330.050781 864.089844 333.648438 L 856.179688 340.453125 C 851.929688 344.105469 840.808594 334.359375 845.039062 330.726562 L 852.96875 323.921875 C 857.199219 320.265625 861.574219 320.902344 864.660156 323.601562 Z M 864.660156 323.601562 " fill-opacity="1" fill-rule="nonzero"/><g fill="#1e2226" fill-opacity="1"><g transform="translate(518.749973, 675.501081)"><g><path d="M 26.03125 -87.265625 L 26.03125 0 L 7.578125 0 L 7.578125 -87.265625 Z M 26.03125 -87.265625 "/></g></g></g><g fill="#1e2226" fill-opacity="1"><g transform="translate(552.414782, 675.501081)"><g><path d="M 25.390625 -37.84375 L 25.390625 0 L 7.25 0 L 7.25 -65.453125 L 24.546875 -65.453125 L 24.546875 -53.90625 L 25.3125 -53.90625 C 26.789062 -57.707031 29.226562 -60.722656 32.625 -62.953125 C 36.019531 -65.191406 40.144531 -66.3125 45 -66.3125 C 51.820312 -66.3125 57.289062 -64.113281 61.40625 -59.71875 C 65.519531 -55.332031 67.578125 -49.316406 67.578125 -41.671875 L 67.578125 0 L 49.4375 0 L 49.4375 -38.4375 C 49.457031 -42.445312 48.429688 -45.578125 46.359375 -47.828125 C 44.285156 -50.085938 41.429688 -51.21875 37.796875 -51.21875 C 34.128906 -51.21875 31.148438 -50.046875 28.859375 -47.703125 C 26.578125 -45.359375 25.421875 -42.070312 25.390625 -37.84375 Z M 25.390625 -37.84375 "/></g></g></g><g fill="#1e2226" fill-opacity="1"><g transform="translate(627.031343, 675.501081)"><g><path d="M 7.25 0 L 7.25 -87.265625 L 25.390625 -87.265625 L 25.390625 -40.609375 L 26.375 -40.609375 L 47.34375 -65.453125 L 68.1875 -65.453125 L 43.890625 -37.109375 L 69.421875 0 L 48.15625 0 L 30.296875 -26.375 L 25.390625 -20.796875 L 25.390625 0 Z M 7.25 0 "/></g></g></g><g fill="#1e2226" fill-opacity="1"><g transform="translate(696.832552, 675.501081)"><g><path d="M 25.90625 1.234375 C 19.65625 1.234375 14.46875 -0.394531 10.34375 -3.65625 C 6.226562 -6.925781 4.171875 -11.800781 4.171875 -18.28125 C 4.171875 -23.164062 5.320312 -27 7.625 -29.78125 C 9.925781 -32.570312 12.941406 -34.613281 16.671875 -35.90625 C 20.410156 -37.195312 24.441406 -38.039062 28.765625 -38.4375 C 34.441406 -39.007812 38.5 -39.609375 40.9375 -40.234375 C 43.382812 -40.859375 44.609375 -42.21875 44.609375 -44.3125 L 44.609375 -44.578125 C 44.609375 -47.273438 43.765625 -49.359375 42.078125 -50.828125 C 40.390625 -52.304688 38 -53.046875 34.90625 -53.046875 C 31.632812 -53.046875 29.03125 -52.335938 27.09375 -50.921875 C 25.164062 -49.503906 23.890625 -47.703125 23.265625 -45.515625 L 6.484375 -46.875 C 7.734375 -52.84375 10.832031 -57.570312 15.78125 -61.0625 C 20.738281 -64.5625 27.140625 -66.3125 34.984375 -66.3125 C 39.835938 -66.3125 44.378906 -65.539062 48.609375 -64 C 52.847656 -62.46875 56.265625 -60.078125 58.859375 -56.828125 C 61.460938 -53.578125 62.765625 -49.347656 62.765625 -44.140625 L 62.765625 0 L 45.546875 0 L 45.546875 -9.078125 L 45.046875 -9.078125 C 43.453125 -6.035156 41.070312 -3.554688 37.90625 -1.640625 C 34.738281 0.273438 30.738281 1.234375 25.90625 1.234375 Z M 31.109375 -11.296875 C 35.085938 -11.296875 38.351562 -12.453125 40.90625 -14.765625 C 43.46875 -17.078125 44.75 -19.953125 44.75 -23.390625 L 44.75 -30.34375 C 44.03125 -29.851562 42.925781 -29.425781 41.4375 -29.0625 C 39.945312 -28.695312 38.359375 -28.378906 36.671875 -28.109375 C 34.984375 -27.835938 33.46875 -27.601562 32.125 -27.40625 C 28.945312 -26.945312 26.382812 -26.050781 24.4375 -24.71875 C 22.488281 -23.382812 21.515625 -21.4375 21.515625 -18.875 C 21.515625 -16.375 22.414062 -14.484375 24.21875 -13.203125 C 26.03125 -11.929688 28.328125 -11.296875 31.109375 -11.296875 Z M 31.109375 -11.296875 "/></g></g></g><g fill="#26a69a" fill-opacity="1"><g transform="translate(766.47262, 675.501081)"><g><path d="M 7.578125 0 L 7.578125 -87.265625 L 26.03125 -87.265625 L 26.03125 -15.21875 L 63.453125 -15.21875 L 63.453125 0 Z M 7.578125 0 "/></g></g></g><g fill="#26a69a" fill-opacity="1"><g transform="translate(834.569289, 675.501081)"><g><path d="M 7.25 0 L 7.25 -65.453125 L 25.390625 -65.453125 L 25.390625 0 Z M 16.359375 -73.890625 C 13.691406 -73.890625 11.390625 -74.789062 9.453125 -76.59375 C 7.523438 -78.394531 6.5625 -80.5625 6.5625 -83.09375 C 6.5625 -85.625 7.523438 -87.785156 9.453125 -89.578125 C 11.390625 -91.367188 13.691406 -92.265625 16.359375 -92.265625 C 19.054688 -92.265625 21.367188 -91.367188 23.296875 -89.578125 C 25.234375 -87.785156 26.203125 -85.625 26.203125 -83.09375 C 26.203125 -80.5625 25.234375 -78.394531 23.296875 -76.59375 C 21.367188 -74.789062 19.054688 -73.890625 16.359375 -73.890625 Z M 16.359375 -73.890625 "/></g></g></g><g fill="#26a69a" fill-opacity="1"><g transform="translate(867.211373, 675.501081)"><g><path d="M 61.703125 -46.796875 L 45.078125 -45.765625 C 44.628906 -47.867188 43.476562 -49.671875 41.625 -51.171875 C 39.78125 -52.679688 37.285156 -53.4375 34.140625 -53.4375 C 31.328125 -53.4375 28.945312 -52.847656 27 -51.671875 C 25.050781 -50.492188 24.09375 -48.921875 24.125 -46.953125 C 24.09375 -45.390625 24.707031 -44.066406 25.96875 -42.984375 C 27.238281 -41.910156 29.390625 -41.046875 32.421875 -40.390625 L 44.28125 -38.015625 C 56.863281 -35.429688 63.171875 -29.519531 63.203125 -20.28125 C 63.203125 -15.988281 61.941406 -12.222656 59.421875 -8.984375 C 56.910156 -5.753906 53.46875 -3.234375 49.09375 -1.421875 C 44.71875 0.378906 39.703125 1.28125 34.046875 1.28125 C 25.378906 1.28125 18.472656 -0.53125 13.328125 -4.15625 C 8.191406 -7.78125 5.195312 -12.71875 4.34375 -18.96875 L 22.203125 -19.90625 C 22.765625 -17.226562 24.078125 -15.207031 26.140625 -13.84375 C 28.203125 -12.476562 30.851562 -11.796875 34.09375 -11.796875 C 37.269531 -11.796875 39.832031 -12.421875 41.78125 -13.671875 C 43.726562 -14.921875 44.71875 -16.515625 44.75 -18.453125 C 44.65625 -21.691406 41.851562 -23.863281 36.34375 -24.96875 L 25.015625 -27.234375 C 12.347656 -29.753906 6.039062 -35.988281 6.09375 -45.9375 C 6.0625 -52.238281 8.582031 -57.207031 13.65625 -60.84375 C 18.726562 -64.488281 25.453125 -66.3125 33.828125 -66.3125 C 42.097656 -66.3125 48.613281 -64.5625 53.375 -61.0625 C 58.132812 -57.570312 60.910156 -52.816406 61.703125 -46.796875 Z M 61.703125 -46.796875 "/></g></g></g><g fill="#26a69a" fill-opacity="1"><g transform="translate(934.626213, 675.501081)"><g><path d="M 42.0625 -65.453125 L 42.0625 -51.8125 L 29.75 -51.8125 L 29.75 -20.109375 C 29.75 -17.609375 30.316406 -15.914062 31.453125 -15.03125 C 32.585938 -14.15625 34.0625 -13.71875 35.875 -13.71875 C 36.726562 -13.71875 37.582031 -13.796875 38.4375 -13.953125 C 39.289062 -14.109375 39.941406 -14.226562 40.390625 -14.3125 L 43.25 -0.8125 C 42.34375 -0.53125 41.066406 -0.195312 39.421875 0.1875 C 37.773438 0.570312 35.769531 0.804688 33.40625 0.890625 C 26.8125 1.179688 21.519531 -0.238281 17.53125 -3.375 C 13.539062 -6.519531 11.5625 -11.304688 11.59375 -17.734375 L 11.59375 -51.8125 L 2.640625 -51.8125 L 2.640625 -65.453125 L 11.59375 -65.453125 L 11.59375 -81.140625 L 29.75 -81.140625 L 29.75 -65.453125 Z M 42.0625 -65.453125 "/></g></g></g></svg>