<svg xmlns="http://www.w3.org/2000/svg" xmlns:xlink="http://www.w3.org/1999/xlink" width="2000" zoomAndPan="magnify" viewBox="0 0 1500 899.99999" height="1200" preserveAspectRatio="xMidYMid meet" version="1.0"><defs><clipPath id="0ed9e462a0"><path d="M 800.257812 417.113281 L 859.875 417.113281 L 859.875 477.675781 L 800.257812 477.675781 Z M 800.257812 417.113281 " clip-rule="nonzero"/></clipPath><clipPath id="5296659f64"><path d="M 700.609375 448.160156 L 803.546875 448.160156 L 803.546875 534.292969 L 700.609375 534.292969 Z M 700.609375 448.160156 " clip-rule="nonzero"/></clipPath></defs><path fill="#007267" d="M 716.3125 375.101562 C 755.417969 369.617188 758.578125 439.652344 722.390625 437.957031 C 693.300781 436.597656 682.324219 379.867188 716.3125 375.101562 " fill-opacity="1" fill-rule="evenodd"/><path fill="#007267" d="M 779.167969 375.101562 C 822.238281 365.699219 817.210938 442.214844 777.140625 437.957031 C 745.425781 434.585938 751.605469 381.117188 779.167969 375.101562 " fill-opacity="1" fill-rule="evenodd"/><path fill="#007267" d="M 702.121094 459.25 C 686.800781 492.683594 640.125 469.0625 645.34375 435.929688 C 650.839844 401.03125 713.257812 418.820312 702.121094 459.25 " fill-opacity="1" fill-rule="evenodd"/><g clip-path="url(#0ed9e462a0)"><path fill="#007267" d="M 828.847656 417.683594 C 838.921875 415.730469 851.515625 419.3125 856.21875 427.816406 C 869.1875 451.289062 845.285156 479.976562 821.75 477.496094 C 808.824219 476.136719 801.359375 465.136719 800.457031 455.195312 C 798.535156 433.898438 813.734375 420.605469 828.847656 417.683594 " fill-opacity="1" fill-rule="evenodd"/></g><g clip-path="url(#5296659f64)"><path fill="#007267" d="M 741.65625 449.109375 C 777.179688 442.980469 809.789062 468.578125 802.488281 511.964844 C 800.972656 520.945312 793.242188 533.644531 782.207031 534.269531 C 773.300781 534.777344 762.886719 526.105469 751.796875 526.160156 C 738.027344 526.226562 727.171875 538.4375 714.28125 532.246094 C 703.457031 527.039062 699.078125 505.992188 701.105469 490.679688 C 704.015625 468.601562 720.25 452.800781 741.65625 449.109375 " fill-opacity="1" fill-rule="evenodd"/></g></svg>